ISO-10303-21;
HEADER;
FILE_DESCRIPTION (( 'STEP AP214' ),
    '1' );
FILE_NAME ('BMC1JY0100AN.STEP',
    '2025-02-06T16:27:11',
    ( '' ),
    ( '' ),
    'SwSTEP 2.0',
    'SolidWorks 2021',
    '' );
FILE_SCHEMA (( 'AUTOMOTIVE_DESIGN' ));
ENDSEC;

DATA;
#1 = CARTESIAN_POINT ( 'NONE',  ( -0.8000000000000001554, 0.9100000000000000311, -0.3599999999999998201 ) ) ;
#2 = CARTESIAN_POINT ( 'NONE',  ( -0.8000000000000001554, 0.03999999999999999389, -0.3999999999999998002 ) ) ;
#3 = AXIS2_PLACEMENT_3D ( 'NONE', #97, #1260, #764 ) ;
#4 = DIRECTION ( 'NONE',  ( -1.000000000000000000, -0.000000000000000000, 8.673617379884036705E-17 ) ) ;
#5 = VECTOR ( 'NONE', #261, 1000.000000000000000 ) ;
#6 = VERTEX_POINT ( 'NONE', #744 ) ;
#7 = EDGE_CURVE ( 'NONE', #694, #276, #74, .T. ) ;
#8 = ADVANCED_FACE ( 'NONE', ( #659 ), #649, .T. ) ;
#9 = DIRECTION ( 'NONE',  ( 0.000000000000000000, -1.000000000000000000, 0.000000000000000000 ) ) ;
#10 = DIRECTION ( 'NONE',  ( -1.000000000000000000, -0.000000000000000000, -0.000000000000000000 ) ) ;
#11 = CARTESIAN_POINT ( 'NONE',  ( -0.7600000000000001199, 0.04000000000000000083, -0.3599999999999998201 ) ) ;
#12 = DIRECTION ( 'NONE',  ( -1.505836350674312974E-16, 0.000000000000000000, -1.000000000000000000 ) ) ;
#13 = ORIENTED_EDGE ( 'NONE', *, *, #773, .F. ) ;
#14 = EDGE_CURVE ( 'NONE', #701, #284, #1080, .T. ) ;
#15 = CARTESIAN_POINT ( 'NONE',  ( 0.7600000000000001199, 0.04000000000000000083, -0.3599999999999998201 ) ) ;
#16 = LINE ( 'NONE', #221, #390 ) ;
#17 = CARTESIAN_POINT ( 'NONE',  ( -0.7600000000000001199, 0.9100000000000000311, -0.3599999999999998201 ) ) ;
#18 = AXIS2_PLACEMENT_3D ( 'NONE', #629, #363, #354 ) ;
#19 = EDGE_LOOP ( 'NONE', ( #915, #935, #922 ) ) ;
#20 = ORIENTED_EDGE ( 'NONE', *, *, #770, .F. ) ;
#21 = DIRECTION ( 'NONE',  ( 0.000000000000000000, -0.000000000000000000, 1.000000000000000000 ) ) ;
#22 = CARTESIAN_POINT ( 'NONE',  ( 0.4500000000007275958, 0.9366666666666666474, 0.3599999999999994871 ) ) ;
#23 = CARTESIAN_POINT ( 'NONE',  ( 0.4500000000000001776, 0.9499999999999999556, -0.3999999999999998002 ) ) ;
#24 = EDGE_CURVE ( 'NONE', #627, #352, #562, .T. ) ;
#25 = AXIS2_PLACEMENT_3D ( 'NONE', #58, #646, #726 ) ;
#26 = ORIENTED_EDGE ( 'NONE', *, *, #1154, .T. ) ;
#27 = AXIS2_PLACEMENT_3D ( 'NONE', #998, #135, #1006 ) ;
#28 = ORIENTED_EDGE ( 'NONE', *, *, #1273, .F. ) ;
#29 = DIRECTION ( 'NONE',  ( 0.000000000000000000, 0.000000000000000000, 1.000000000000000000 ) ) ;
#30 = CARTESIAN_POINT ( 'NONE',  ( 0.4500000000007275958, 0.9100000000000000311, -0.3599999999999999312 ) ) ;
#31 = APPLICATION_CONTEXT ( 'automotive_design' ) ;
#32 = ORIENTED_EDGE ( 'NONE', *, *, #1174, .T. ) ;
#33 = VERTEX_POINT ( 'NONE', #488 ) ;
#34 = CARTESIAN_POINT ( 'NONE',  ( -0.7600000000000001199, 0.9100000000000000311, -0.3599999999999998201 ) ) ;
#35 = CARTESIAN_POINT ( 'NONE',  ( 0.7600000000000000089, 0.000000000000000000, 0.3600000000000000977 ) ) ;
#36 = DIRECTION ( 'NONE',  ( -1.000000000000000000, 0.000000000000000000, -0.000000000000000000 ) ) ;
#37 = AXIS2_PLACEMENT_3D ( 'NONE', #751, #1148, #365 ) ;
#38 = UNCERTAINTY_MEASURE_WITH_UNIT (LENGTH_MEASURE( 1.000000000000000082E-05 ), #106, 'distance_accuracy_value', 'NONE');
#39 = EDGE_LOOP ( 'NONE', ( #367, #337, #218, #1062 ) ) ;
#40 = CIRCLE ( 'NONE', #1276, 0.03999999999999999389 ) ;
#41 = ADVANCED_FACE ( 'NONE', ( #771 ), #859, .T. ) ;
#42 = ORIENTED_EDGE ( 'NONE', *, *, #110, .F. ) ;
#43 = CARTESIAN_POINT ( 'NONE',  ( -0.7600000000000000089, 0.9499999999999999556, 0.4000000000000000777 ) ) ;
#44 = FACE_OUTER_BOUND ( 'NONE', #39, .T. ) ;
#45 = CARTESIAN_POINT ( 'NONE',  ( 0.4500000000000000666, 0.04000000000000021594, 0.4000000000000000777 ) ) ;
#46 = EDGE_LOOP ( 'NONE', ( #596, #48, #622, #323 ) ) ;
#47 = VECTOR ( 'NONE', #87, 1000.000000000000000 ) ;
#48 = ORIENTED_EDGE ( 'NONE', *, *, #710, .F. ) ;
#49 = CARTESIAN_POINT ( 'NONE',  ( 0.000000000000000000, 0.000000000000000000, 0.3600000000000000977 ) ) ;
#50 = DIRECTION ( 'NONE',  ( 0.000000000000000000, 0.000000000000000000, 1.000000000000000000 ) ) ;
#51 = ADVANCED_FACE ( 'NONE', ( #788 ), #101, .T. ) ;
#52 = LINE ( 'NONE', #558, #217 ) ;
#53 = CARTESIAN_POINT ( 'NONE',  ( -0.4500000000000000666, 0.04000000000000021594, 0.4000000000000000777 ) ) ;
#54 = ORIENTED_EDGE ( 'NONE', *, *, #533, .T. ) ;
#55 = EDGE_LOOP ( 'NONE', ( #32, #868, #724, #960 ) ) ;
#56 = APPLICATION_PROTOCOL_DEFINITION ( 'draft international standard', 'automotive_design', 1998, #31 ) ;
#57 = CARTESIAN_POINT ( 'NONE',  ( -0.7600000000000000089, 0.9100000000000000311, 0.3600000000000000977 ) ) ;
#58 = CARTESIAN_POINT ( 'NONE',  ( -0.7600000000000001199, 0.03999999999999999389, -0.3599999999999998201 ) ) ;
#59 = CARTESIAN_POINT ( 'NONE',  ( -0.8000000000000001554, 0.9499999999999999556, -0.3599999999999998201 ) ) ;
#60 = ORIENTED_EDGE ( 'NONE', *, *, #1226, .F. ) ;
#61 = AXIS2_PLACEMENT_3D ( 'NONE', #611, #400, #420 ) ;
#62 = ORIENTED_EDGE ( 'NONE', *, *, #281, .T. ) ;
#63 = CARTESIAN_POINT ( 'NONE',  ( 0.4500000000000000666, 0.9499999999999999556, 0.4000000000000000777 ) ) ;
#64 = LINE ( 'NONE', #1218, #589 ) ;
#65 = LINE ( 'NONE', #1086, #781 ) ;
#66 = DIRECTION ( 'NONE',  ( 0.000000000000000000, 0.000000000000000000, -1.000000000000000000 ) ) ;
#67 = ADVANCED_FACE ( 'NONE', ( #183 ), #883, .T. ) ;
#68 = EDGE_CURVE ( 'NONE', #276, #351, #968, .T. ) ;
#69 = EDGE_LOOP ( 'NONE', ( #564, #103, #1158, #146 ) ) ;
#70 = ADVANCED_FACE ( 'NONE', ( #202 ), #680, .T. ) ;
#71 = VERTEX_POINT ( 'NONE', #587 ) ;
#72 =( NAMED_UNIT ( * ) SI_UNIT ( $, .STERADIAN. ) SOLID_ANGLE_UNIT ( ) );
#73 = CARTESIAN_POINT ( 'NONE',  ( 0.4500000000007275958, 0.01333333333333333245, -0.3599999999999997091 ) ) ;
#74 = CIRCLE ( 'NONE', #215, 0.02666666666666669960 ) ;
#75 = VECTOR ( 'NONE', #1021, 1000.000000000000000 ) ;
#76 = PLANE ( 'NONE',  #1099 ) ;
#77 = AXIS2_PLACEMENT_3D ( 'NONE', #210, #986, #1070 ) ;
#78 = ORIENTED_EDGE ( 'NONE', *, *, #699, .F. ) ;
#79 = VERTEX_POINT ( 'NONE', #483 ) ;
#80 = CARTESIAN_POINT ( 'NONE',  ( -0.7600000000000000089, 0.9100000000000000311, 0.3600000000000000977 ) ) ;
#81 = ORIENTED_EDGE ( 'NONE', *, *, #402, .F. ) ;
#82 = ORIENTED_EDGE ( 'NONE', *, *, #369, .T. ) ;
#83 = AXIS2_PLACEMENT_3D ( 'NONE', #833, #841, #1239 ) ;
#84 = EDGE_CURVE ( 'NONE', #1098, #1136, #278, .T. ) ;
#85 = DIRECTION ( 'NONE',  ( 1.000000000000000000, 0.000000000000000000, 0.000000000000000000 ) ) ;
#86 = DIRECTION ( 'NONE',  ( 1.000000000000000000, 0.000000000000000000, 1.355252715606880789E-16 ) ) ;
#87 = DIRECTION ( 'NONE',  ( 1.000000000000000000, -0.000000000000000000, 0.000000000000000000 ) ) ;
#88 = ORIENTED_EDGE ( 'NONE', *, *, #424, .T. ) ;
#89 = ADVANCED_FACE ( 'NONE', ( #774 ), #287, .T. ) ;
#90 = CIRCLE ( 'NONE', #279, 0.03999999999999999389 ) ;
#91 = PLANE ( 'NONE',  #133 ) ;
#92 = AXIS2_PLACEMENT_3D ( 'NONE', #893, #414, #591 ) ;
#93 = DIRECTION ( 'NONE',  ( -1.000000000000000000, 0.000000000000000000, 0.000000000000000000 ) ) ;
#94 = ORIENTED_EDGE ( 'NONE', *, *, #942, .F. ) ;
#95 = CARTESIAN_POINT ( 'NONE',  ( 0.4500000000007275958, 0.9366666666666666474, -0.3600000001111305359 ) ) ;
#96 =( NAMED_UNIT ( * ) PLANE_ANGLE_UNIT ( ) SI_UNIT ( $, .RADIAN. ) );
#97 = CARTESIAN_POINT ( 'NONE',  ( 0.000000000000000000, 0.9499999999999999556, 0.000000000000000000 ) ) ;
#98 = ORIENTED_EDGE ( 'NONE', *, *, #973, .F. ) ;
#99 = VECTOR ( 'NONE', #927, 1000.000000000000000 ) ;
#100 = VECTOR ( 'NONE', #849, 1000.000000000000000 ) ;
#101 = PLANE ( 'NONE',  #3 ) ;
#102 = EDGE_CURVE ( 'NONE', #1136, #701, #876, .T. ) ;
#103 = ORIENTED_EDGE ( 'NONE', *, *, #727, .T. ) ;
#104 = DIRECTION ( 'NONE',  ( 0.000000000000000000, -1.000000000000000000, 0.000000000000000000 ) ) ;
#105 = DIRECTION ( 'NONE',  ( 1.000000000000000000, 0.000000000000000000, 1.355252715606880789E-16 ) ) ;
#106 =( LENGTH_UNIT ( ) NAMED_UNIT ( * ) SI_UNIT ( .MILLI., .METRE. ) );
#107 = CIRCLE ( 'NONE', #722, 0.03999999999999999389 ) ;
#108 = CARTESIAN_POINT ( 'NONE',  ( -0.8000000000000001554, 0.03999999999999999389, -0.3599999999999998201 ) ) ;
#109 = CIRCLE ( 'NONE', #25, 0.03999999999999999389 ) ;
#110 = EDGE_CURVE ( 'NONE', #514, #229, #1267, .T. ) ;
#111 = VERTEX_POINT ( 'NONE', #1278 ) ;
#112 = DIRECTION ( 'NONE',  ( -1.000000000000000000, 0.000000000000000000, 0.000000000000000000 ) ) ;
#113 = FACE_OUTER_BOUND ( 'NONE', #712, .T. ) ;
#114 = DIRECTION ( 'NONE',  ( 0.000000000000000000, 0.000000000000000000, 1.000000000000000000 ) ) ;
#115 = FACE_OUTER_BOUND ( 'NONE', #989, .T. ) ;
#116 = ORIENTED_EDGE ( 'NONE', *, *, #1089, .T. ) ;
#117 = EDGE_LOOP ( 'NONE', ( #522, #235, #1045, #1032 ) ) ;
#118 = LINE ( 'NONE', #126, #857 ) ;
#119 = CARTESIAN_POINT ( 'NONE',  ( 0.8000000000000001554, 0.03999999999999999389, -0.3999999999999998002 ) ) ;
#120 = EDGE_CURVE ( 'NONE', #731, #181, #597, .T. ) ;
#121 = CARTESIAN_POINT ( 'NONE',  ( 0.7600000000000001199, 0.000000000000000000, -0.3599999999999998201 ) ) ;
#122 = CIRCLE ( 'NONE', #1001, 0.03999999999999999389 ) ;
#123 =( GEOMETRIC_REPRESENTATION_CONTEXT ( 3 ) GLOBAL_UNCERTAINTY_ASSIGNED_CONTEXT ( ( #1221 ) ) GLOBAL_UNIT_ASSIGNED_CONTEXT ( ( #1145, #651, #72 ) ) REPRESENTATION_CONTEXT ( 'NONE', 'WORKASPACE' ) );
#124 = ORIENTED_EDGE ( 'NONE', *, *, #1280, .T. ) ;
#125 = ORIENTED_EDGE ( 'NONE', *, *, #1019, .F. ) ;
#126 = CARTESIAN_POINT ( 'NONE',  ( 0.8000000000000000444, 0.9100000000000000311, 0.4000000000000000777 ) ) ;
#127 = CARTESIAN_POINT ( 'NONE',  ( 0.4500000000000001776, 0.9499999999999999556, -0.3999999999999998002 ) ) ;
#128 = CARTESIAN_POINT ( 'NONE',  ( 0.4500000000000000666, 0.9100000000000000311, 0.3600000000000000977 ) ) ;
#129 = AXIS2_PLACEMENT_3D ( 'NONE', #1076, #676, #593 ) ;
#130 = CIRCLE ( 'NONE', #497, 0.03999999999999999389 ) ;
#131 = ORIENTED_EDGE ( 'NONE', *, *, #1031, .F. ) ;
#132 = ADVANCED_FACE ( 'NONE', ( #1165 ), #383, .F. ) ;
#133 = AXIS2_PLACEMENT_3D ( 'NONE', #882, #1065, #1270 ) ;
#134 = DIRECTION ( 'NONE',  ( 0.000000000000000000, 1.000000000000000000, 0.000000000000000000 ) ) ;
#135 = DIRECTION ( 'NONE',  ( 1.000000000000000000, 0.000000000000000000, -8.673617379884036705E-17 ) ) ;
#136 = CARTESIAN_POINT ( 'NONE',  ( -0.4500000000000000666, 0.9100000000000000311, 0.3600000000000000977 ) ) ;
#137 = ADVANCED_FACE ( 'NONE', ( #1176 ), #692, .F. ) ;
#138 = ORIENTED_EDGE ( 'NONE', *, *, #341, .T. ) ;
#139 = DIRECTION ( 'NONE',  ( 0.000000000000000000, 0.000000000000000000, -1.000000000000000000 ) ) ;
#140 = DIRECTION ( 'NONE',  ( -1.000000000000000000, 0.000000000000000000, 0.000000000000000000 ) ) ;
#141 = CARTESIAN_POINT ( 'NONE',  ( 0.7600000000000000089, 0.9100000000000000311, 0.3600000000000000977 ) ) ;
#142 = AXIS2_PLACEMENT_3D ( 'NONE', #250, #462, #1249 ) ;
#143 = CIRCLE ( 'NONE', #658, 0.03999999999999999389 ) ;
#144 = ORIENTED_EDGE ( 'NONE', *, *, #745, .F. ) ;
#145 = ADVANCED_FACE ( 'NONE', ( #1171 ), #292, .T. ) ;
#146 = ORIENTED_EDGE ( 'NONE', *, *, #429, .T. ) ;
#147 = LINE ( 'NONE', #1048, #431 ) ;
#148 = LINE ( 'NONE', #464, #1059 ) ;
#149 = DIRECTION ( 'NONE',  ( 0.000000000000000000, 0.000000000000000000, -1.000000000000000000 ) ) ;
#150 = ORIENTED_EDGE ( 'NONE', *, *, #24, .F. ) ;
#151 = VECTOR ( 'NONE', #581, 1000.000000000000000 ) ;
#152 = ORIENTED_EDGE ( 'NONE', *, *, #1074, .F. ) ;
#153 = VECTOR ( 'NONE', #704, 1000.000000000000000 ) ;
#154 = DIRECTION ( 'NONE',  ( -1.000000000000000000, 0.000000000000000000, 0.000000000000000000 ) ) ;
#155 = FACE_OUTER_BOUND ( 'NONE', #1064, .T. ) ;
#156 = CARTESIAN_POINT ( 'NONE',  ( 500000.0000000000582, 0.01333333333333333245, 0.3599999999566316777 ) ) ;
#157 = CARTESIAN_POINT ( 'NONE',  ( 0.7600000000000001199, 0.9100000000000000311, -0.3599999999999998201 ) ) ;
#158 = VERTEX_POINT ( 'NONE', #108 ) ;
#159 = EDGE_LOOP ( 'NONE', ( #568, #1189, #825, #230 ) ) ;
#160 = LINE ( 'NONE', #827, #409 ) ;
#161 = FACE_OUTER_BOUND ( 'NONE', #46, .T. ) ;
#162 = CARTESIAN_POINT ( 'NONE',  ( 0.7600000000000001199, 0.9100000000000000311, 1.029992063861229705E-16 ) ) ;
#163 = EDGE_CURVE ( 'NONE', #6, #1144, #107, .T. ) ;
#164 = CYLINDRICAL_SURFACE ( 'NONE', #896, 0.03999999999999999389 ) ;
#165 = ORIENTED_EDGE ( 'NONE', *, *, #1017, .F. ) ;
#166 = CIRCLE ( 'NONE', #630, 0.03999999999999999389 ) ;
#167 = CIRCLE ( 'NONE', #309, 0.03999999999999999389 ) ;
#168 = EDGE_LOOP ( 'NONE', ( #152, #1213, #375 ) ) ;
#169 = DIRECTION ( 'NONE',  ( -1.000000000000000000, -0.000000000000000000, -0.000000000000000000 ) ) ;
#170 = FACE_OUTER_BOUND ( 'NONE', #955, .T. ) ;
#171 = CYLINDRICAL_SURFACE ( 'NONE', #372, 0.03999999999999999389 ) ;
#172 = VERTEX_POINT ( 'NONE', #1187 ) ;
#173 = ORIENTED_EDGE ( 'NONE', *, *, #520, .F. ) ;
#174 = DIRECTION ( 'NONE',  ( 1.000000000000000000, 0.000000000000000000, 0.000000000000000000 ) ) ;
#175 = AXIS2_PLACEMENT_3D ( 'NONE', #136, #1106, #619 ) ;
#176 = CARTESIAN_POINT ( 'NONE',  ( -0.7600000000000001199, 0.03999999999999999389, -0.3999999999999998002 ) ) ;
#177 = AXIS2_PLACEMENT_3D ( 'NONE', #30, #315, #715 ) ;
#178 = CARTESIAN_POINT ( 'NONE',  ( -0.7600000000000000089, 0.04000000000000000083, 0.3600000000000000977 ) ) ;
#179 = ORIENTED_EDGE ( 'NONE', *, *, #1220, .F. ) ;
#180 = EDGE_CURVE ( 'NONE', #33, #418, #890, .T. ) ;
#181 = VERTEX_POINT ( 'NONE', #216 ) ;
#182 = DIRECTION ( 'NONE',  ( 0.000000000000000000, 0.000000000000000000, 1.000000000000000000 ) ) ;
#183 = FACE_OUTER_BOUND ( 'NONE', #168, .T. ) ;
#184 = ADVANCED_FACE ( 'NONE', ( #404 ), #499, .T. ) ;
#185 = ADVANCED_FACE ( 'NONE', ( #115 ), #1170, .F. ) ;
#186 = ORIENTED_EDGE ( 'NONE', *, *, #626, .F. ) ;
#187 = CIRCLE ( 'NONE', #289, 0.03999999999999999389 ) ;
#188 = LINE ( 'NONE', #491, #151 ) ;
#189 = ADVANCED_FACE ( 'NONE', ( #592 ), #91, .F. ) ;
#190 = CARTESIAN_POINT ( 'NONE',  ( -0.4500000000000000666, 0.9499999999999999556, 0.3600000000000000977 ) ) ;
#191 = ORIENTED_EDGE ( 'NONE', *, *, #484, .T. ) ;
#192 = SPHERICAL_SURFACE ( 'NONE', #359, 0.04000000000000000083 ) ;
#193 = VECTOR ( 'NONE', #396, 1000.000000000000000 ) ;
#194 =( LENGTH_UNIT ( ) NAMED_UNIT ( * ) SI_UNIT ( .MILLI., .METRE. ) );
#195 = STYLED_ITEM ( 'NONE', ( #566 ), #647 ) ;
#196 = DIRECTION ( 'NONE',  ( 1.000000000000000000, 0.000000000000000000, 1.355252715606880789E-16 ) ) ;
#197 = EDGE_LOOP ( 'NONE', ( #313, #604, #910, #125 ) ) ;
#198 = FACE_OUTER_BOUND ( 'NONE', #1128, .T. ) ;
#199 = EDGE_CURVE ( 'NONE', #1103, #478, #1175, .T. ) ;
#200 = EDGE_CURVE ( 'NONE', #352, #33, #299, .T. ) ;
#201 = SURFACE_SIDE_STYLE ('',( #691 ) ) ;
#202 = FACE_OUTER_BOUND ( 'NONE', #270, .T. ) ;
#203 = EDGE_CURVE ( 'NONE', #478, #457, #874, .T. ) ;
#204 = EDGE_LOOP ( 'NONE', ( #718, #419, #360, #891, #616, #633, #288, #224 ) ) ;
#205 = CIRCLE ( 'NONE', #571, 0.03999999999999999389 ) ;
#206 = CARTESIAN_POINT ( 'NONE',  ( -0.4500000000000001776, 0.03999999999999999389, -0.3599999999999998201 ) ) ;
#207 = PLANE ( 'NONE',  #92 ) ;
#208 = VECTOR ( 'NONE', #757, 1000.000000000000000 ) ;
#209 = VECTOR ( 'NONE', #1217, 1000.000000000000000 ) ;
#210 = CARTESIAN_POINT ( 'NONE',  ( 0.7600000000000000089, 0.04000000000000000083, 0.3600000000000000977 ) ) ;
#211 = ORIENTED_EDGE ( 'NONE', *, *, #770, .T. ) ;
#212 = CARTESIAN_POINT ( 'NONE',  ( -0.7600000000000000089, 0.9499999999999999556, 0.3600000000000000977 ) ) ;
#213 = DIRECTION ( 'NONE',  ( 0.000000000000000000, -1.000000000000000000, 0.000000000000000000 ) ) ;
#214 = DIRECTION ( 'NONE',  ( 0.000000000000000000, 0.000000000000000000, -1.000000000000000000 ) ) ;
#215 = AXIS2_PLACEMENT_3D ( 'NONE', #268, #263, #466 ) ;
#216 = CARTESIAN_POINT ( 'NONE',  ( 0.7600000000000000089, 0.03999999999999999389, 0.4000000000000000777 ) ) ;
#217 = VECTOR ( 'NONE', #750, 1000.000000000000000 ) ;
#218 = ORIENTED_EDGE ( 'NONE', *, *, #203, .T. ) ;
#219 = ADVANCED_FACE ( 'NONE', ( #378 ), #492, .T. ) ;
#220 = LINE ( 'NONE', #605, #1209 ) ;
#221 = CARTESIAN_POINT ( 'NONE',  ( 500000.0000000000582, 0.04000000000000043104, 0.3866666666232985716 ) ) ;
#222 = DIRECTION ( 'NONE',  ( 0.000000000000000000, 0.000000000000000000, 1.000000000000000000 ) ) ;
#223 = ORIENTED_EDGE ( 'NONE', *, *, #894, .T. ) ;
#224 = ORIENTED_EDGE ( 'NONE', *, *, #683, .F. ) ;
#225 = FACE_OUTER_BOUND ( 'NONE', #197, .T. ) ;
#226 = CARTESIAN_POINT ( 'NONE',  ( 0.4500000000000001776, 0.03999999999999999389, -0.3599999999999998201 ) ) ;
#227 = MANIFOLD_SOLID_BREP ( 'Boss-Extrude2', #358 ) ;
#228 = DIRECTION ( 'NONE',  ( 0.000000000000000000, 1.000000000000000000, 0.000000000000000000 ) ) ;
#229 = VERTEX_POINT ( 'NONE', #498 ) ;
#230 = ORIENTED_EDGE ( 'NONE', *, *, #1250, .F. ) ;
#231 = PLANE ( 'NONE',  #61 ) ;
#232 = LINE ( 'NONE', #900, #317 ) ;
#233 = DIRECTION ( 'NONE',  ( -1.000000000000000000, -0.000000000000000000, 8.673617379884036705E-17 ) ) ;
#234 = VECTOR ( 'NONE', #1056, 1000.000000000000000 ) ;
#235 = ORIENTED_EDGE ( 'NONE', *, *, #1280, .F. ) ;
#236 = ORIENTED_EDGE ( 'NONE', *, *, #862, .T. ) ;
#237 = LINE ( 'NONE', #49, #100 ) ;
#238 = CARTESIAN_POINT ( 'NONE',  ( 0.4500000000000000666, 0.9499999999999999556, 0.3599999999999998201 ) ) ;
#239 = CARTESIAN_POINT ( 'NONE',  ( 0.4500000000000001776, 0.000000000000000000, -0.3599999999999998201 ) ) ;
#240 = ADVANCED_FACE ( 'NONE', ( #985 ), #889, .T. ) ;
#241 = VERTEX_POINT ( 'NONE', #964 ) ;
#242 = EDGE_CURVE ( 'NONE', #500, #1182, #130, .T. ) ;
#243 = ORIENTED_EDGE ( 'NONE', *, *, #68, .T. ) ;
#244 = CARTESIAN_POINT ( 'NONE',  ( 0.8000000000000000444, 0.03999999999999999389, 0.3600000000000000977 ) ) ;
#245 = CARTESIAN_POINT ( 'NONE',  ( 0.7600000000000000089, 0.03999999999999999389, 0.3600000000000000977 ) ) ;
#246 = DIRECTION ( 'NONE',  ( 0.000000000000000000, 0.000000000000000000, 1.000000000000000000 ) ) ;
#247 = VECTOR ( 'NONE', #732, 1000.000000000000000 ) ;
#248 = ORIENTED_EDGE ( 'NONE', *, *, #68, .F. ) ;
#249 = DIRECTION ( 'NONE',  ( -0.000000000000000000, -1.000000000000000000, -0.000000000000000000 ) ) ;
#250 = CARTESIAN_POINT ( 'NONE',  ( -0.8000000000000001554, 0.9499999999999999556, -0.3999999999999998002 ) ) ;
#251 = CARTESIAN_POINT ( 'NONE',  ( -0.7600000000000000089, 0.03999999999999999389, 0.3600000000000000977 ) ) ;
#252 = MANIFOLD_SOLID_BREP ( 'Fillet1', #785 ) ;
#253 = LINE ( 'NONE', #639, #939 ) ;
#254 = ORIENTED_EDGE ( 'NONE', *, *, #847, .F. ) ;
#255 = AXIS2_PLACEMENT_3D ( 'NONE', #956, #682, #761 ) ;
#256 = VERTEX_POINT ( 'NONE', #121 ) ;
#257 = CIRCLE ( 'NONE', #27, 0.02666666666666664756 ) ;
#258 = FILL_AREA_STYLE_COLOUR ( '', #877 ) ;
#259 = DIRECTION ( 'NONE',  ( -1.000000000000000000, 0.000000000000000000, -1.355252715606880789E-16 ) ) ;
#260 = PRODUCT_RELATED_PRODUCT_CATEGORY ( 'part', '', ( #1029 ) ) ;
#261 = DIRECTION ( 'NONE',  ( 1.355252715606880789E-16, -0.000000000000000000, 1.000000000000000000 ) ) ;
#262 = LINE ( 'NONE', #470, #406 ) ;
#263 = DIRECTION ( 'NONE',  ( 1.000000000000000000, 0.000000000000000000, 1.355252715606880789E-16 ) ) ;
#264 = VERTEX_POINT ( 'NONE', #901 ) ;
#265 = DIRECTION ( 'NONE',  ( 0.000000000000000000, 0.000000000000000000, -1.000000000000000000 ) ) ;
#266 = DIRECTION ( 'NONE',  ( -1.000000000000000000, -0.000000000000000000, -0.000000000000000000 ) ) ;
#267 = CARTESIAN_POINT ( 'NONE',  ( -0.4500000000000000666, 0.9100000000000000311, 0.3866666666666667140 ) ) ;
#268 = CARTESIAN_POINT ( 'NONE',  ( 0.4500000000007275958, 0.9100000000000000311, 0.3599999999999999867 ) ) ;
#269 = VECTOR ( 'NONE', #169, 1000.000000000000000 ) ;
#270 = EDGE_LOOP ( 'NONE', ( #1131, #1162, #966, #1203 ) ) ;
#271 = DIRECTION ( 'NONE',  ( 1.000000000000000000, 0.000000000000000000, 0.000000000000000000 ) ) ;
#272 = DIRECTION ( 'NONE',  ( 0.000000000000000000, 1.000000000000000000, 0.000000000000000000 ) ) ;
#273 = CARTESIAN_POINT ( 'NONE',  ( 0.7600000000000001199, 0.9499999999999999556, -0.3999999999999998002 ) ) ;
#274 = ADVANCED_FACE ( 'NONE', ( #914 ), #382, .F. ) ;
#275 = DIRECTION ( 'NONE',  ( 1.000000000000000000, 0.000000000000000000, 0.000000000000000000 ) ) ;
#276 = VERTEX_POINT ( 'NONE', #601 ) ;
#277 = ORIENTED_EDGE ( 'NONE', *, *, #1061, .F. ) ;
#278 = CIRCLE ( 'NONE', #1121, 0.03999999999999999389 ) ;
#279 = AXIS2_PLACEMENT_3D ( 'NONE', #251, #1153, #448 ) ;
#280 = LINE ( 'NONE', #861, #193 ) ;
#281 = EDGE_CURVE ( 'NONE', #324, #902, #717, .T. ) ;
#282 = DIRECTION ( 'NONE',  ( 0.000000000000000000, 0.000000000000000000, -1.000000000000000000 ) ) ;
#283 = EDGE_CURVE ( 'NONE', #831, #1110, #422, .T. ) ;
#284 = VERTEX_POINT ( 'NONE', #415 ) ;
#285 = CARTESIAN_POINT ( 'NONE',  ( 0.4500000000000001776, 0.9100000000000000311, -0.3999999999999998002 ) ) ;
#286 = SURFACE_SIDE_STYLE ('',( #769 ) ) ;
#287 = CYLINDRICAL_SURFACE ( 'NONE', #1117, 0.03999999999999999389 ) ;
#288 = ORIENTED_EDGE ( 'NONE', *, *, #110, .T. ) ;
#289 = AXIS2_PLACEMENT_3D ( 'NONE', #444, #1227, #741 ) ;
#290 = CIRCLE ( 'NONE', #716, 0.02666666666666664756 ) ;
#291 =( NAMED_UNIT ( * ) PLANE_ANGLE_UNIT ( ) SI_UNIT ( $, .RADIAN. ) );
#292 = PLANE ( 'NONE',  #129 ) ;
#293 = ORIENTED_EDGE ( 'NONE', *, *, #84, .F. ) ;
#294 = APPLICATION_PROTOCOL_DEFINITION ( 'draft international standard', 'automotive_design', 1998, #1197 ) ;
#295 = ADVANCED_FACE ( 'NONE', ( #607 ), #310, .T. ) ;
#296 = AXIS2_PLACEMENT_3D ( 'NONE', #792, #602, #994 ) ;
#297 = CARTESIAN_POINT ( 'NONE',  ( 0.7600000000000000089, 0.04000000000000000083, 0.3600000000000000977 ) ) ;
#298 = AXIS2_PLACEMENT_3D ( 'NONE', #1192, #316, #222 ) ;
#299 = LINE ( 'NONE', #487, #336 ) ;
#300 = CARTESIAN_POINT ( 'NONE',  ( -0.4500000000000001776, 0.9499999999999999556, -0.3999999999999998002 ) ) ;
#301 = UNCERTAINTY_MEASURE_WITH_UNIT (LENGTH_MEASURE( 1.000000000000000082E-05 ), #194, 'distance_accuracy_value', 'NONE');
#302 = VERTEX_POINT ( 'NONE', #239 ) ;
#303 = FACE_OUTER_BOUND ( 'NONE', #159, .T. ) ;
#304 = CARTESIAN_POINT ( 'NONE',  ( 0.000000000000000000, 0.9100000000000000311, -0.3599999999999998201 ) ) ;
#305 = VERTEX_POINT ( 'NONE', #1200 ) ;
#306 = CIRCLE ( 'NONE', #1152, 0.03999999999999999389 ) ;
#307 = DIRECTION ( 'NONE',  ( 1.000000000000000000, -0.000000000000000000, -1.355252715606880789E-16 ) ) ;
#308 = DIRECTION ( 'NONE',  ( -1.000000000000000000, -0.000000000000000000, 8.673617379884036705E-17 ) ) ;
#309 = AXIS2_PLACEMENT_3D ( 'NONE', #1047, #249, #339 ) ;
#310 = SPHERICAL_SURFACE ( 'NONE', #845, 0.04000000000000000083 ) ;
#311 = ADVANCED_FACE ( 'NONE', ( #403 ), #711, .T. ) ;
#312 = CARTESIAN_POINT ( 'NONE',  ( 0.7600000000000001199, 0.9100000000000000311, -0.3599999999999998201 ) ) ;
#313 = ORIENTED_EDGE ( 'NONE', *, *, #1247, .T. ) ;
#314 = DIRECTION ( 'NONE',  ( 0.000000000000000000, 0.000000000000000000, 1.000000000000000000 ) ) ;
#315 = DIRECTION ( 'NONE',  ( 1.000000000000000000, 0.000000000000000000, 1.355252715606880789E-16 ) ) ;
#316 = DIRECTION ( 'NONE',  ( -1.000000000000000000, -0.000000000000000000, -0.000000000000000000 ) ) ;
#317 = VECTOR ( 'NONE', #814, 1000.000000000000000 ) ;
#318 = EDGE_LOOP ( 'NONE', ( #1150, #729, #812, #452 ) ) ;
#319 = EDGE_LOOP ( 'NONE', ( #569, #468, #1201, #191 ) ) ;
#320 = DIRECTION ( 'NONE',  ( 1.000000000000000000, -0.000000000000000000, -0.000000000000000000 ) ) ;
#321 = DIRECTION ( 'NONE',  ( -1.000000000000000000, -0.000000000000000000, 8.673617379884036705E-17 ) ) ;
#322 = EDGE_CURVE ( 'NONE', #809, #578, #430, .T. ) ;
#323 = ORIENTED_EDGE ( 'NONE', *, *, #786, .F. ) ;
#324 = VERTEX_POINT ( 'NONE', #1115 ) ;
#325 = CYLINDRICAL_SURFACE ( 'NONE', #329, 0.03999999999999999389 ) ;
#326 = DIRECTION ( 'NONE',  ( 0.000000000000000000, 1.000000000000000000, 0.000000000000000000 ) ) ;
#327 = DIRECTION ( 'NONE',  ( 0.000000000000000000, -1.000000000000000000, 0.000000000000000000 ) ) ;
#328 = AXIS2_PLACEMENT_3D ( 'NONE', #1138, #259, #1233 ) ;
#329 = AXIS2_PLACEMENT_3D ( 'NONE', #688, #112, #29 ) ;
#330 = ORIENTED_EDGE ( 'NONE', *, *, #377, .F. ) ;
#331 = EDGE_LOOP ( 'NONE', ( #920, #523, #485, #131 ) ) ;
#332 = LINE ( 'NONE', #63, #247 ) ;
#333 = DIRECTION ( 'NONE',  ( -1.355252715606880789E-16, 0.000000000000000000, 1.000000000000000000 ) ) ;
#334 = EDGE_CURVE ( 'NONE', #694, #588, #335, .T. ) ;
#335 = LINE ( 'NONE', #504, #640 ) ;
#336 = VECTOR ( 'NONE', #482, 1000.000000000000000 ) ;
#337 = ORIENTED_EDGE ( 'NONE', *, *, #199, .T. ) ;
#338 = ORIENTED_EDGE ( 'NONE', *, *, #533, .F. ) ;
#339 = DIRECTION ( 'NONE',  ( 0.000000000000000000, 0.000000000000000000, 1.000000000000000000 ) ) ;
#340 = DIRECTION ( 'NONE',  ( 1.355252715606880789E-16, -0.000000000000000000, -1.000000000000000000 ) ) ;
#341 = EDGE_CURVE ( 'NONE', #1108, #832, #1094, .T. ) ;
#342 = CARTESIAN_POINT ( 'NONE',  ( 0.7600000000000001199, 0.03999999999999999389, -0.3999999999999998002 ) ) ;
#343 = ORIENTED_EDGE ( 'NONE', *, *, #481, .T. ) ;
#344 = ORIENTED_EDGE ( 'NONE', *, *, #1017, .T. ) ;
#345 = LINE ( 'NONE', #43, #209 ) ;
#346 = DIRECTION ( 'NONE',  ( -0.000000000000000000, 1.000000000000000000, 0.000000000000000000 ) ) ;
#347 = CARTESIAN_POINT ( 'NONE',  ( 0.8000000000000001554, 0.9100000000000000311, -0.3599999999999998201 ) ) ;
#348 = CIRCLE ( 'NONE', #856, 0.03999999999999999389 ) ;
#349 = DIRECTION ( 'NONE',  ( 0.000000000000000000, 1.000000000000000000, 0.000000000000000000 ) ) ;
#350 = EDGE_CURVE ( 'NONE', #687, #1248, #1241, .T. ) ;
#351 = VERTEX_POINT ( 'NONE', #1206 ) ;
#352 = VERTEX_POINT ( 'NONE', #895 ) ;
#353 = CARTESIAN_POINT ( 'NONE',  ( 0.4500000000000001776, 0.9100000000000000311, -0.3599999999999998201 ) ) ;
#354 = DIRECTION ( 'NONE',  ( 0.000000000000000000, 0.000000000000000000, 1.000000000000000000 ) ) ;
#355 = DIRECTION ( 'NONE',  ( 0.000000000000000000, -0.000000000000000000, 1.000000000000000000 ) ) ;
#356 = CARTESIAN_POINT ( 'NONE',  ( -0.8000000000000001554, 0.9499999999999999556, -0.3599999999999998201 ) ) ;
#357 = ORIENTED_EDGE ( 'NONE', *, *, #866, .F. ) ;
#358 = CLOSED_SHELL ( 'NONE', ( #721, #189, #467, #560, #543, #240, #1113, #953, #730, #798 ) ) ;
#359 = AXIS2_PLACEMENT_3D ( 'NONE', #297, #1159, #385 ) ;
#360 = ORIENTED_EDGE ( 'NONE', *, *, #1256, .F. ) ;
#361 = VECTOR ( 'NONE', #10, 1000.000000000000000 ) ;
#362 = SURFACE_STYLE_USAGE ( .BOTH. , #738 ) ;
#363 = DIRECTION ( 'NONE',  ( -1.000000000000000000, -0.000000000000000000, 8.673617379884036705E-17 ) ) ;
#364 = DIRECTION ( 'NONE',  ( 1.000000000000000000, 0.000000000000000000, -8.673617379884036705E-17 ) ) ;
#365 = DIRECTION ( 'NONE',  ( 0.000000000000000000, 0.000000000000000000, 1.000000000000000000 ) ) ;
#366 = EDGE_LOOP ( 'NONE', ( #1196, #945, #494, #664, #1116, #681, #405, #399 ) ) ;
#367 = ORIENTED_EDGE ( 'NONE', *, *, #613, .T. ) ;
#368 = DIRECTION ( 'NONE',  ( 0.000000000000000000, -1.000000000000000000, -0.000000000000000000 ) ) ;
#369 = EDGE_CURVE ( 'NONE', #588, #351, #1263, .T. ) ;
#370 = DIRECTION ( 'NONE',  ( 1.000000000000000000, -0.000000000000000000, -0.000000000000000000 ) ) ;
#371 = DIRECTION ( 'NONE',  ( 0.000000000000000000, 0.000000000000000000, -1.000000000000000000 ) ) ;
#372 = AXIS2_PLACEMENT_3D ( 'NONE', #450, #275, #149 ) ;
#373 = EDGE_LOOP ( 'NONE', ( #1039, #1030, #82, #248 ) ) ;
#374 = STYLED_ITEM ( 'NONE', ( #937 ), #624 ) ;
#375 = ORIENTED_EDGE ( 'NONE', *, *, #163, .F. ) ;
#376 =( NAMED_UNIT ( * ) SI_UNIT ( $, .STERADIAN. ) SOLID_ANGLE_UNIT ( ) );
#377 = EDGE_CURVE ( 'NONE', #578, #264, #1118, .T. ) ;
#378 = FACE_OUTER_BOUND ( 'NONE', #1066, .T. ) ;
#379 = CARTESIAN_POINT ( 'NONE',  ( -0.7600000000000001199, 0.03999999999999999389, -0.3999999999999998002 ) ) ;
#380 = ORIENTED_EDGE ( 'NONE', *, *, #1031, .T. ) ;
#381 = DIRECTION ( 'NONE',  ( 0.000000000000000000, -0.000000000000000000, 1.000000000000000000 ) ) ;
#382 = PLANE ( 'NONE',  #563 ) ;
#383 = PLANE ( 'NONE',  #1240 ) ;
#384 = ORIENTED_EDGE ( 'NONE', *, *, #1174, .F. ) ;
#385 = DIRECTION ( 'NONE',  ( -1.000000000000000000, 0.000000000000000000, 0.000000000000000000 ) ) ;
#386 = FILL_AREA_STYLE_COLOUR ( '', #1177 ) ;
#387 = DIRECTION ( 'NONE',  ( -1.355252715606880789E-16, 0.000000000000000000, -1.000000000000000000 ) ) ;
#388 = EDGE_CURVE ( 'NONE', #1248, #527, #519, .T. ) ;
#389 = EDGE_LOOP ( 'NONE', ( #344, #380, #1091, #439 ) ) ;
#390 = VECTOR ( 'NONE', #321, 1000.000000000000000 ) ;
#391 =( GEOMETRIC_REPRESENTATION_CONTEXT ( 3 ) GLOBAL_UNCERTAINTY_ASSIGNED_CONTEXT ( ( #1097 ) ) GLOBAL_UNIT_ASSIGNED_CONTEXT ( ( #1223, #644, #947 ) ) REPRESENTATION_CONTEXT ( 'NONE', 'WORKASPACE' ) );
#392 = CARTESIAN_POINT ( 'NONE',  ( 0.4500000000007275958, 0.04000000000000043104, 0.3866666666666666030 ) ) ;
#393 = FILL_AREA_STYLE ('',( #685 ) ) ;
#394 = DIRECTION ( 'NONE',  ( -1.355252715606880789E-16, 0.000000000000000000, 1.000000000000000000 ) ) ;
#395 = VERTEX_POINT ( 'NONE', #614 ) ;
#396 = DIRECTION ( 'NONE',  ( 0.000000000000000000, -1.000000000000000000, 0.000000000000000000 ) ) ;
#397 = AXIS2_PLACEMENT_3D ( 'NONE', #245, #835, #842 ) ;
#398 = CARTESIAN_POINT ( 'NONE',  ( 0.4500000000000001776, 0.9499999999999999556, -0.3999999999999998002 ) ) ;
#399 = ORIENTED_EDGE ( 'NONE', *, *, #909, .T. ) ;
#400 = DIRECTION ( 'NONE',  ( -8.673617379884036705E-17, 0.000000000000000000, -1.000000000000000000 ) ) ;
#401 = DIRECTION ( 'NONE',  ( -0.000000000000000000, -0.000000000000000000, -1.000000000000000000 ) ) ;
#402 = EDGE_CURVE ( 'NONE', #79, #832, #1014, .T. ) ;
#403 = FACE_OUTER_BOUND ( 'NONE', #706, .T. ) ;
#404 = FACE_OUTER_BOUND ( 'NONE', #642, .T. ) ;
#405 = ORIENTED_EDGE ( 'NONE', *, *, #1061, .T. ) ;
#406 = VECTOR ( 'NONE', #663, 1000.000000000000000 ) ;
#407 = FACE_OUTER_BOUND ( 'NONE', #806, .T. ) ;
#408 = CARTESIAN_POINT ( 'NONE',  ( 0.7600000000000001199, 0.9100000000000000311, -0.3599999999999998201 ) ) ;
#409 = VECTOR ( 'NONE', #1123, 1000.000000000000000 ) ;
#410 = EDGE_CURVE ( 'NONE', #831, #241, #1011, .T. ) ;
#411 = DIRECTION ( 'NONE',  ( 0.000000000000000000, 0.000000000000000000, -1.000000000000000000 ) ) ;
#412 = ORIENTED_EDGE ( 'NONE', *, *, #710, .T. ) ;
#413 = DIRECTION ( 'NONE',  ( 1.000000000000000000, 0.000000000000000000, 0.000000000000000000 ) ) ;
#414 = DIRECTION ( 'NONE',  ( 0.000000000000000000, -1.000000000000000000, 0.000000000000000000 ) ) ;
#415 = CARTESIAN_POINT ( 'NONE',  ( -0.4500000000000000666, 0.9100000000000000311, 0.4000000000000000777 ) ) ;
#416 = AXIS2_PLACEMENT_3D ( 'NONE', #17, #411, #797 ) ;
#417 = AXIS2_PLACEMENT_3D ( 'NONE', #1168, #475, #381 ) ;
#418 = VERTEX_POINT ( 'NONE', #1147 ) ;
#419 = ORIENTED_EDGE ( 'NONE', *, *, #242, .F. ) ;
#420 = DIRECTION ( 'NONE',  ( -1.000000000000000000, 0.000000000000000000, 8.673617379884036705E-17 ) ) ;
#421 = CARTESIAN_POINT ( 'NONE',  ( -0.8000000000000000444, 0.03999999999999999389, 0.3600000000000000977 ) ) ;
#422 = LINE ( 'NONE', #23, #666 ) ;
#423 = ORIENTED_EDGE ( 'NONE', *, *, #586, .T. ) ;
#424 = EDGE_CURVE ( 'NONE', #687, #506, #52, .T. ) ;
#425 = EDGE_CURVE ( 'NONE', #731, #911, #702, .T. ) ;
#426 = ORIENTED_EDGE ( 'NONE', *, *, #120, .T. ) ;
#427 = DIRECTION ( 'NONE',  ( 0.000000000000000000, 0.000000000000000000, 1.000000000000000000 ) ) ;
#428 = CARTESIAN_POINT ( 'NONE',  ( 0.7600000000000000089, 0.9100000000000000311, 0.3600000000000000977 ) ) ;
#429 = EDGE_CURVE ( 'NONE', #284, #1098, #654, .T. ) ;
#430 = LINE ( 'NONE', #720, #75 ) ;
#431 = VECTOR ( 'NONE', #346, 1000.000000000000000 ) ;
#432 = AXIS2_PLACEMENT_3D ( 'NONE', #206, #307, #314 ) ;
#433 = ORIENTED_EDGE ( 'NONE', *, *, #996, .F. ) ;
#434 = ORIENTED_EDGE ( 'NONE', *, *, #746, .F. ) ;
#435 = CARTESIAN_POINT ( 'NONE',  ( 0.000000000000000000, 0.000000000000000000, -0.3599999999999998201 ) ) ;
#436 = FACE_OUTER_BOUND ( 'NONE', #879, .T. ) ;
#437 = VECTOR ( 'NONE', #1035, 1000.000000000000000 ) ;
#438 = ORIENTED_EDGE ( 'NONE', *, *, #495, .T. ) ;
#439 = ORIENTED_EDGE ( 'NONE', *, *, #102, .T. ) ;
#440 = DIRECTION ( 'NONE',  ( 1.000000000000000000, 0.000000000000000000, 1.355252715606880789E-16 ) ) ;
#441 = DIRECTION ( 'NONE',  ( 1.000000000000000000, -0.000000000000000000, -1.355252715606880789E-16 ) ) ;
#442 = CARTESIAN_POINT ( 'NONE',  ( -0.8000000000000001554, 0.03999999999999999389, -0.3999999999999998002 ) ) ;
#443 = EDGE_CURVE ( 'NONE', #158, #772, #1050, .T. ) ;
#444 = CARTESIAN_POINT ( 'NONE',  ( -0.7600000000000001199, 0.04000000000000000083, -0.3599999999999998201 ) ) ;
#445 = VERTEX_POINT ( 'NONE', #1140 ) ;
#446 = VERTEX_POINT ( 'NONE', #631 ) ;
#447 = DIRECTION ( 'NONE',  ( -0.000000000000000000, 0.000000000000000000, -1.000000000000000000 ) ) ;
#448 = DIRECTION ( 'NONE',  ( 0.000000000000000000, 0.000000000000000000, -1.000000000000000000 ) ) ;
#449 = CIRCLE ( 'NONE', #1169, 0.03999999999999999389 ) ;
#450 = CARTESIAN_POINT ( 'NONE',  ( 0.000000000000000000, 0.9100000000000000311, -0.3599999999999998201 ) ) ;
#451 = MECHANICAL_DESIGN_GEOMETRIC_PRESENTATION_REPRESENTATION (  '', ( #374 ), #123 ) ;
#452 = ORIENTED_EDGE ( 'NONE', *, *, #199, .F. ) ;
#453 = ORIENTED_EDGE ( 'NONE', *, *, #1016, .F. ) ;
#454 = PLANE ( 'NONE',  #83 ) ;
#455 = DIRECTION ( 'NONE',  ( 1.000000000000000000, 0.000000000000000000, 1.355252715606882022E-16 ) ) ;
#456 = DIRECTION ( 'NONE',  ( -0.000000000000000000, -0.000000000000000000, 1.000000000000000000 ) ) ;
#457 = VERTEX_POINT ( 'NONE', #552 ) ;
#458 = MECHANICAL_DESIGN_GEOMETRIC_PRESENTATION_REPRESENTATION (  '', ( #903 ), #579 ) ;
#459 = ADVANCED_FACE ( 'NONE', ( #170 ), #949, .T. ) ;
#460 = VECTOR ( 'NONE', #266, 1000.000000000000000 ) ;
#461 = ORIENTED_EDGE ( 'NONE', *, *, #613, .F. ) ;
#462 = DIRECTION ( 'NONE',  ( 1.000000000000000000, 0.000000000000000000, -1.355252715606880789E-16 ) ) ;
#463 = COLOUR_RGB ( '',0.2509803921568627416, 0.2509803921568627416, 0.2509803921568627416 ) ;
#464 = CARTESIAN_POINT ( 'NONE',  ( 0.000000000000000000, 0.000000000000000000, 0.3600000000000000977 ) ) ;
#465 = SPHERICAL_SURFACE ( 'NONE', #756, 0.04000000000000000083 ) ;
#466 = DIRECTION ( 'NONE',  ( 0.000000000000000000, 0.000000000000000000, -1.000000000000000000 ) ) ;
#467 = ADVANCED_FACE ( 'NONE', ( #932 ), #76, .F. ) ;
#468 = ORIENTED_EDGE ( 'NONE', *, *, #1019, .T. ) ;
#469 =( LENGTH_UNIT ( ) NAMED_UNIT ( * ) SI_UNIT ( .MILLI., .METRE. ) );
#470 = CARTESIAN_POINT ( 'NONE',  ( 0.8000000000000001554, 0.9499999999999999556, -0.3599999999999998201 ) ) ;
#471 = CIRCLE ( 'NONE', #656, 0.03999999999999999389 ) ;
#472 = EDGE_LOOP ( 'NONE', ( #854, #116, #1008 ) ) ;
#473 = EDGE_LOOP ( 'NONE', ( #643, #412, #995, #628 ) ) ;
#474 = EDGE_CURVE ( 'NONE', #324, #1222, #148, .T. ) ;
#475 = DIRECTION ( 'NONE',  ( 0.000000000000000000, 1.000000000000000000, 0.000000000000000000 ) ) ;
#476 = DIRECTION ( 'NONE',  ( 0.000000000000000000, 0.000000000000000000, 1.000000000000000000 ) ) ;
#477 = DIRECTION ( 'NONE',  ( 0.000000000000000000, -1.000000000000000000, -0.000000000000000000 ) ) ;
#478 = VERTEX_POINT ( 'NONE', #176 ) ;
#479 = PRESENTATION_LAYER_ASSIGNMENT (  '', '', ( #904 ) ) ;
#480 = CIRCLE ( 'NONE', #1266, 0.03999999999999999389 ) ;
#481 = EDGE_CURVE ( 'NONE', #478, #446, #109, .T. ) ;
#482 = DIRECTION ( 'NONE',  ( -1.000000000000000000, -0.000000000000000000, 8.673617379884036705E-17 ) ) ;
#483 = CARTESIAN_POINT ( 'NONE',  ( 0.4500000000007275958, 0.9099999999999998090, -0.3866666666666665475 ) ) ;
#484 = EDGE_CURVE ( 'NONE', #772, #809, #925, .T. ) ;
#485 = ORIENTED_EDGE ( 'NONE', *, *, #1089, .F. ) ;
#486 = DIRECTION ( 'NONE',  ( -1.355252715606880789E-16, 0.000000000000000000, 1.000000000000000000 ) ) ;
#487 = CARTESIAN_POINT ( 'NONE',  ( 500000.0000000000582, 0.01333333333333334286, 0.3599999999566316777 ) ) ;
#488 = CARTESIAN_POINT ( 'NONE',  ( -0.4500000000000000666, 0.01333333333333334286, 0.3599999999999998201 ) ) ;
#489 = ORIENTED_EDGE ( 'NONE', *, *, #1096, .T. ) ;
#490 = AXIS2_PLACEMENT_3D ( 'NONE', #1041, #725, #938 ) ;
#491 = CARTESIAN_POINT ( 'NONE',  ( -0.4500000000000001776, 0.9499999999999999556, -0.3999999999999998002 ) ) ;
#492 = CYLINDRICAL_SURFACE ( 'NONE', #924, 0.03999999999999999389 ) ;
#493 = CARTESIAN_POINT ( 'NONE',  ( 500000.0000000000582, 0.9100000000000000311, 0.3866666666232986271 ) ) ;
#494 = ORIENTED_EDGE ( 'NONE', *, *, #7, .T. ) ;
#495 = EDGE_CURVE ( 'NONE', #445, #772, #90, .T. ) ;
#496 = CARTESIAN_POINT ( 'NONE',  ( -0.7600000000000000089, 0.03999999999999999389, 0.3600000000000000977 ) ) ;
#497 = AXIS2_PLACEMENT_3D ( 'NONE', #974, #86, #476 ) ;
#498 = CARTESIAN_POINT ( 'NONE',  ( 0.4500000000000001776, 0.04000000000000021594, -0.3999999999999998002 ) ) ;
#499 = CYLINDRICAL_SURFACE ( 'NONE', #296, 0.03999999999999999389 ) ;
#500 = VERTEX_POINT ( 'NONE', #45 ) ;
#501 = EDGE_CURVE ( 'NONE', #446, #902, #1225, .T. ) ;
#502 = CARTESIAN_POINT ( 'NONE',  ( 0.8000000000000001554, 0.03999999999999999389, -0.3999999999999998002 ) ) ;
#503 = LINE ( 'NONE', #516, #153 ) ;
#504 = CARTESIAN_POINT ( 'NONE',  ( 500000.0000000000582, 0.9366666666666666474, 0.3599999999566314557 ) ) ;
#505 = DIRECTION ( 'NONE',  ( 0.000000000000000000, 0.000000000000000000, 1.000000000000000000 ) ) ;
#506 = VERTEX_POINT ( 'NONE', #347 ) ;
#507 = AXIS2_PLACEMENT_3D ( 'NONE', #943, #1135, #66 ) ;
#508 = ORIENTED_EDGE ( 'NONE', *, *, #745, .T. ) ;
#509 = DIRECTION ( 'NONE',  ( 1.000000000000000000, 0.000000000000000000, 0.000000000000000000 ) ) ;
#510 = CARTESIAN_POINT ( 'NONE',  ( 0.7600000000000000089, 0.9499999999999999556, 0.4000000000000000777 ) ) ;
#511 = CIRCLE ( 'NONE', #432, 0.03999999999999999389 ) ;
#512 = CARTESIAN_POINT ( 'NONE',  ( -0.4500000000000001776, 0.000000000000000000, -0.3999999999999998002 ) ) ;
#513 = ORIENTED_EDGE ( 'NONE', *, *, #1250, .T. ) ;
#514 = VERTEX_POINT ( 'NONE', #734 ) ;
#515 = CARTESIAN_POINT ( 'NONE',  ( 0.7600000000000001199, 0.9499999999999999556, -0.3599999999999998201 ) ) ;
#516 = CARTESIAN_POINT ( 'NONE',  ( 0.4500000000000000666, 0.9499999999999999556, 0.3600000000000000977 ) ) ;
#517 = AXIS2_PLACEMENT_3D ( 'NONE', #944, #1053, #561 ) ;
#518 = CARTESIAN_POINT ( 'NONE',  ( 500000.0000000000582, 0.9099999999999998090, -0.3866666667100345789 ) ) ;
#519 = CIRCLE ( 'NONE', #298, 0.03999999999999999389 ) ;
#520 = EDGE_CURVE ( 'NONE', #615, #1144, #754, .T. ) ;
#521 = MECHANICAL_DESIGN_GEOMETRIC_PRESENTATION_REPRESENTATION (  '', ( #195 ), #1036 ) ;
#522 = ORIENTED_EDGE ( 'NONE', *, *, #586, .F. ) ;
#523 = ORIENTED_EDGE ( 'NONE', *, *, #1063, .F. ) ;
#524 = DIRECTION ( 'NONE',  ( -1.000000000000000000, 0.000000000000000000, 0.000000000000000000 ) ) ;
#525 = LINE ( 'NONE', #510, #1195 ) ;
#526 = DIRECTION ( 'NONE',  ( 1.355252715606880789E-16, -0.000000000000000000, -1.000000000000000000 ) ) ;
#527 = VERTEX_POINT ( 'NONE', #1234 ) ;
#528 = LINE ( 'NONE', #923, #1003 ) ;
#529 = FACE_OUTER_BOUND ( 'NONE', #117, .T. ) ;
#530 = CIRCLE ( 'NONE', #810, 0.03999999999999999389 ) ;
#531 = DIRECTION ( 'NONE',  ( -1.355252715606880789E-16, -0.000000000000000000, -1.000000000000000000 ) ) ;
#532 = EDGE_LOOP ( 'NONE', ( #752, #60, #330, #1272 ) ) ;
#533 = EDGE_CURVE ( 'NONE', #71, #1108, #1134, .T. ) ;
#534 = EDGE_LOOP ( 'NONE', ( #277, #211, #818, #338 ) ) ;
#535 = DIRECTION ( 'NONE',  ( 0.000000000000000000, 1.000000000000000000, 0.000000000000000000 ) ) ;
#536 = DIRECTION ( 'NONE',  ( -1.000000000000000000, 0.000000000000000000, -0.000000000000000000 ) ) ;
#537 = LINE ( 'NONE', #59, #755 ) ;
#538 = AXIS2_PLACEMENT_3D ( 'NONE', #128, #907, #919 ) ;
#539 = AXIS2_PLACEMENT_3D ( 'NONE', #342, #545, #662 ) ;
#540 = EDGE_LOOP ( 'NONE', ( #1228, #936, #1237, #677 ) ) ;
#541 = ORIENTED_EDGE ( 'NONE', *, *, #242, .T. ) ;
#542 = DIRECTION ( 'NONE',  ( 1.000000000000000000, 0.000000000000000000, 0.000000000000000000 ) ) ;
#543 = ADVANCED_FACE ( 'NONE', ( #436 ), #822, .F. ) ;
#544 = ADVANCED_FACE ( 'NONE', ( #740 ), #1042, .T. ) ;
#545 = DIRECTION ( 'NONE',  ( -1.355252715606880789E-16, 0.000000000000000000, 1.000000000000000000 ) ) ;
#546 = DIRECTION ( 'NONE',  ( 0.000000000000000000, 0.000000000000000000, -1.000000000000000000 ) ) ;
#547 = EDGE_CURVE ( 'NONE', #352, #929, #65, .T. ) ;
#548 = ORIENTED_EDGE ( 'NONE', *, *, #547, .F. ) ;
#549 = EDGE_LOOP ( 'NONE', ( #343, #667, #799 ) ) ;
#550 = SURFACE_STYLE_FILL_AREA ( #1238 ) ;
#551 = PLANE ( 'NONE',  #142 ) ;
#552 = CARTESIAN_POINT ( 'NONE',  ( -0.7600000000000001199, 0.9100000000000000311, -0.3999999999999998002 ) ) ;
#553 = CIRCLE ( 'NONE', #962, 0.02666666666666664756 ) ;
#554 = CYLINDRICAL_SURFACE ( 'NONE', #37, 0.02666666666666664756 ) ;
#555 = ORIENTED_EDGE ( 'NONE', *, *, #120, .F. ) ;
#556 = ORIENTED_EDGE ( 'NONE', *, *, #425, .T. ) ;
#557 = LINE ( 'NONE', #948, #1255 ) ;
#558 = CARTESIAN_POINT ( 'NONE',  ( 0.8000000000000001554, 0.9100000000000000311, -0.3999999999999998002 ) ) ;
#559 = LINE ( 'NONE', #735, #1275 ) ;
#560 = ADVANCED_FACE ( 'NONE', ( #1173 ), #977, .T. ) ;
#561 = DIRECTION ( 'NONE',  ( 0.000000000000000000, 0.000000000000000000, -1.000000000000000000 ) ) ;
#562 = CIRCLE ( 'NONE', #954, 0.02666666666666664756 ) ;
#563 = AXIS2_PLACEMENT_3D ( 'NONE', #1102, #214, #36 ) ;
#564 = ORIENTED_EDGE ( 'NONE', *, *, #1273, .T. ) ;
#565 = AXIS2_PLACEMENT_3D ( 'NONE', #300, #577, #1090 ) ;
#566 = PRESENTATION_STYLE_ASSIGNMENT (( #967 ) ) ;
#567 = DIRECTION ( 'NONE',  ( 1.000000000000000000, 0.000000000000000000, 0.000000000000000000 ) ) ;
#568 = ORIENTED_EDGE ( 'NONE', *, *, #959, .F. ) ;
#569 = ORIENTED_EDGE ( 'NONE', *, *, #322, .T. ) ;
#570 = FACE_OUTER_BOUND ( 'NONE', #766, .T. ) ;
#571 = AXIS2_PLACEMENT_3D ( 'NONE', #80, #858, #246 ) ;
#572 = DIRECTION ( 'NONE',  ( -1.000000000000000000, 0.000000000000000000, 0.000000000000000000 ) ) ;
#573 = ORIENTED_EDGE ( 'NONE', *, *, #1264, .T. ) ;
#574 = SHAPE_DEFINITION_REPRESENTATION ( #871, #624 ) ;
#575 = EDGE_CURVE ( 'NONE', #839, #694, #1081, .T. ) ;
#576 = PLANE ( 'NONE',  #1077 ) ;
#577 = DIRECTION ( 'NONE',  ( -1.000000000000000000, 0.000000000000000000, 1.355252715606880789E-16 ) ) ;
#578 = VERTEX_POINT ( 'NONE', #1 ) ;
#579 =( GEOMETRIC_REPRESENTATION_CONTEXT ( 3 ) GLOBAL_UNCERTAINTY_ASSIGNED_CONTEXT ( ( #38 ) ) GLOBAL_UNIT_ASSIGNED_CONTEXT ( ( #106, #763, #1087 ) ) REPRESENTATION_CONTEXT ( 'NONE', 'WORKASPACE' ) );
#580 = VECTOR ( 'NONE', #1199, 1000.000000000000000 ) ;
#581 = DIRECTION ( 'NONE',  ( -0.000000000000000000, -1.000000000000000000, -0.000000000000000000 ) ) ;
#582 = CARTESIAN_POINT ( 'NONE',  ( -0.7600000000000001199, 0.9100000000000000311, 1.029992063861229705E-16 ) ) ;
#583 = EDGE_LOOP ( 'NONE', ( #1004, #28, #860, #1279 ) ) ;
#584 = LINE ( 'NONE', #1262, #926 ) ;
#585 = DIRECTION ( 'NONE',  ( 0.000000000000000000, 0.000000000000000000, -1.000000000000000000 ) ) ;
#586 = EDGE_CURVE ( 'NONE', #731, #256, #584, .T. ) ;
#587 = CARTESIAN_POINT ( 'NONE',  ( 0.4500000000007275958, 0.03999999999999999389, -0.3866666666666665475 ) ) ;
#588 = VERTEX_POINT ( 'NONE', #673 ) ;
#589 = VECTOR ( 'NONE', #850, 1000.000000000000000 ) ;
#590 = LINE ( 'NONE', #502, #1257 ) ;
#591 = DIRECTION ( 'NONE',  ( 0.000000000000000000, -0.000000000000000000, -1.000000000000000000 ) ) ;
#592 = FACE_OUTER_BOUND ( 'NONE', #1236, .T. ) ;
#593 = DIRECTION ( 'NONE',  ( 0.000000000000000000, 0.000000000000000000, 1.000000000000000000 ) ) ;
#594 = ADVANCED_FACE ( 'NONE', ( #198 ), #1163, .T. ) ;
#595 = ADVANCED_FACE ( 'NONE', ( #570 ), #192, .T. ) ;
#596 = ORIENTED_EDGE ( 'NONE', *, *, #424, .F. ) ;
#597 = CIRCLE ( 'NONE', #77, 0.03999999999999999389 ) ;
#598 = FACE_OUTER_BOUND ( 'NONE', #1245, .T. ) ;
#599 = FACE_OUTER_BOUND ( 'NONE', #540, .T. ) ;
#600 = AXIS2_PLACEMENT_3D ( 'NONE', #162, #940, #455 ) ;
#601 = CARTESIAN_POINT ( 'NONE',  ( 0.4500000000007275958, 0.9100000000000000311, 0.3866666666666666585 ) ) ;
#602 = DIRECTION ( 'NONE',  ( 1.000000000000000000, 0.000000000000000000, 0.000000000000000000 ) ) ;
#603 = PRODUCT_DEFINITION_CONTEXT ( 'detailed design', #1197, 'design' ) ;
#604 = ORIENTED_EDGE ( 'NONE', *, *, #203, .F. ) ;
#605 = CARTESIAN_POINT ( 'NONE',  ( -0.7600000000000001199, 0.000000000000000000, 1.029992063861229705E-16 ) ) ;
#606 = LINE ( 'NONE', #791, #1107 ) ;
#607 = FACE_OUTER_BOUND ( 'NONE', #549, .T. ) ;
#608 = ORIENTED_EDGE ( 'NONE', *, *, #1246, .T. ) ;
#609 = AXIS2_PLACEMENT_3D ( 'NONE', #157, #456, #509 ) ;
#610 = ORIENTED_EDGE ( 'NONE', *, *, #690, .F. ) ;
#611 = CARTESIAN_POINT ( 'NONE',  ( 500000.0000000000582, 0.9100000000000000311, 0.3866666666232985716 ) ) ;
#612 = DIRECTION ( 'NONE',  ( 1.000000000000000000, 0.000000000000000000, 1.355252715606880789E-16 ) ) ;
#613 = EDGE_CURVE ( 'NONE', #305, #1103, #188, .T. ) ;
#614 = CARTESIAN_POINT ( 'NONE',  ( -0.4500000000000001776, 0.9366666666666666474, -0.3599999999999998201 ) ) ;
#615 = VERTEX_POINT ( 'NONE', #1073 ) ;
#616 = ORIENTED_EDGE ( 'NONE', *, *, #283, .T. ) ;
#617 = CYLINDRICAL_SURFACE ( 'NONE', #794, 0.03999999999999999389 ) ;
#618 = DIRECTION ( 'NONE',  ( 0.000000000000000000, 0.000000000000000000, 1.000000000000000000 ) ) ;
#619 = DIRECTION ( 'NONE',  ( 0.000000000000000000, 0.000000000000000000, -1.000000000000000000 ) ) ;
#620 = AXIS2_PLACEMENT_3D ( 'NONE', #156, #1219, #355 ) ;
#621 = ORIENTED_EDGE ( 'NONE', *, *, #973, .T. ) ;
#622 = ORIENTED_EDGE ( 'NONE', *, *, #783, .F. ) ;
#623 = CARTESIAN_POINT ( 'NONE',  ( -0.4500000000000001776, 0.9099999999999998090, -0.3866666666666664365 ) ) ;
#624 = ADVANCED_BREP_SHAPE_REPRESENTATION ( 'BMC1JY0100AN', ( #252, #647, #227, #981 ), #391 ) ;
#625 = DIRECTION ( 'NONE',  ( 0.000000000000000000, 1.000000000000000000, 0.000000000000000000 ) ) ;
#626 = EDGE_CURVE ( 'NONE', #276, #627, #280, .T. ) ;
#627 = VERTEX_POINT ( 'NONE', #392 ) ;
#628 = ORIENTED_EDGE ( 'NONE', *, *, #959, .T. ) ;
#629 = CARTESIAN_POINT ( 'NONE',  ( 500000.0000000000582, 0.9100000000000000311, -0.3600000000433679626 ) ) ;
#630 = AXIS2_PLACEMENT_3D ( 'NONE', #57, #447, #739 ) ;
#631 = CARTESIAN_POINT ( 'NONE',  ( -0.7600000000000001199, 0.000000000000000000, -0.3599999999999998201 ) ) ;
#632 = CARTESIAN_POINT ( 'NONE',  ( 0.000000000000000000, 0.9100000000000000311, 0.3600000000000000977 ) ) ;
#633 = ORIENTED_EDGE ( 'NONE', *, *, #1231, .F. ) ;
#634 = ADVANCED_FACE ( 'NONE', ( #303 ), #576, .F. ) ;
#635 = ORIENTED_EDGE ( 'NONE', *, *, #1096, .F. ) ;
#636 = LINE ( 'NONE', #1033, #963 ) ;
#637 = CARTESIAN_POINT ( 'NONE',  ( 0.7600000000000001199, 0.03999999999999999389, -0.3599999999999998201 ) ) ;
#638 = CARTESIAN_POINT ( 'NONE',  ( 500000.0000000000582, 0.03999999999999999389, -0.3866666667100345789 ) ) ;
#639 = CARTESIAN_POINT ( 'NONE',  ( -0.4500000000000001776, 0.9100000000000000311, -0.3999999999999998002 ) ) ;
#640 = VECTOR ( 'NONE', #233, 1000.000000000000000 ) ;
#641 = VECTOR ( 'NONE', #1112, 1000.000000000000000 ) ;
#642 = EDGE_LOOP ( 'NONE', ( #897, #958, #1167, #1178 ) ) ;
#643 = ORIENTED_EDGE ( 'NONE', *, *, #880, .T. ) ;
#644 =( NAMED_UNIT ( * ) PLANE_ANGLE_UNIT ( ) SI_UNIT ( $, .RADIAN. ) );
#645 = PLANE ( 'NONE',  #490 ) ;
#646 = DIRECTION ( 'NONE',  ( -1.000000000000000000, -0.000000000000000000, -0.000000000000000000 ) ) ;
#647 = MANIFOLD_SOLID_BREP ( 'Mirror2', #1214 ) ;
#648 = FACE_OUTER_BOUND ( 'NONE', #780, .T. ) ;
#649 = CYLINDRICAL_SURFACE ( 'NONE', #517, 0.03999999999999999389 ) ;
#650 = EDGE_LOOP ( 'NONE', ( #94, #826, #635, #789 ) ) ;
#651 =( NAMED_UNIT ( * ) PLANE_ANGLE_UNIT ( ) SI_UNIT ( $, .RADIAN. ) );
#652 = DIRECTION ( 'NONE',  ( 0.000000000000000000, 0.000000000000000000, -1.000000000000000000 ) ) ;
#653 = ADVANCED_FACE ( 'NONE', ( #961 ), #678, .F. ) ;
#654 = LINE ( 'NONE', #1242, #460 ) ;
#655 = EDGE_CURVE ( 'NONE', #1144, #514, #768, .T. ) ;
#656 = AXIS2_PLACEMENT_3D ( 'NONE', #661, #1155, #1058 ) ;
#657 = CARTESIAN_POINT ( 'NONE',  ( -0.4500000000000001776, 0.03999999999999999389, -0.3599999999999998201 ) ) ;
#658 = AXIS2_PLACEMENT_3D ( 'NONE', #353, #440, #840 ) ;
#659 = FACE_OUTER_BOUND ( 'NONE', #650, .T. ) ;
#660 = ORIENTED_EDGE ( 'NONE', *, *, #909, .F. ) ;
#661 = CARTESIAN_POINT ( 'NONE',  ( -0.4500000000000000666, 0.03999999999999999389, 0.3600000000000000977 ) ) ;
#662 = DIRECTION ( 'NONE',  ( -1.000000000000000000, 0.000000000000000000, 0.000000000000000000 ) ) ;
#663 = DIRECTION ( 'NONE',  ( 1.000000000000000000, 0.000000000000000000, 0.000000000000000000 ) ) ;
#664 = ORIENTED_EDGE ( 'NONE', *, *, #626, .T. ) ;
#665 = VECTOR ( 'NONE', #1082, 1000.000000000000000 ) ;
#666 = VECTOR ( 'NONE', #526, 1000.000000000000000 ) ;
#667 = ORIENTED_EDGE ( 'NONE', *, *, #1060, .T. ) ;
#668 = CARTESIAN_POINT ( 'NONE',  ( 0.000000000000000000, 0.000000000000000000, 0.000000000000000000 ) ) ;
#669 = DIRECTION ( 'NONE',  ( -1.000000000000000000, -0.000000000000000000, 8.673617379884036705E-17 ) ) ;
#670 = CARTESIAN_POINT ( 'NONE',  ( 0.4500000000000001776, 0.9499999999999999556, -0.3999999999999998002 ) ) ;
#671 = EDGE_CURVE ( 'NONE', #1222, #772, #480, .T. ) ;
#672 = ORIENTED_EDGE ( 'NONE', *, *, #671, .T. ) ;
#673 = CARTESIAN_POINT ( 'NONE',  ( -0.4500000000000000666, 0.9366666666666666474, 0.3599999999999995981 ) ) ;
#674 = SURFACE_STYLE_USAGE ( .BOTH. , #286 ) ;
#675 = CIRCLE ( 'NONE', #979, 0.03999999999999999389 ) ;
#676 = DIRECTION ( 'NONE',  ( 0.000000000000000000, 1.000000000000000000, 0.000000000000000000 ) ) ;
#677 = ORIENTED_EDGE ( 'NONE', *, *, #1264, .F. ) ;
#678 = PLANE ( 'NONE',  #417 ) ;
#679 = CARTESIAN_POINT ( 'NONE',  ( 0.8000000000000000444, 0.03999999999999999389, 0.3600000000000000977 ) ) ;
#680 = CYLINDRICAL_SURFACE ( 'NONE', #1015, 0.03999999999999999389 ) ;
#681 = ORIENTED_EDGE ( 'NONE', *, *, #547, .T. ) ;
#682 = DIRECTION ( 'NONE',  ( -1.000000000000000000, -0.000000000000000000, 8.673617379884036705E-17 ) ) ;
#683 = EDGE_CURVE ( 'NONE', #302, #229, #705, .T. ) ;
#684 = AXIS2_PLACEMENT_3D ( 'NONE', #787, #777, #863 ) ;
#685 = FILL_AREA_STYLE_COLOUR ( '', #463 ) ;
#686 = DIRECTION ( 'NONE',  ( 1.000000000000000000, 0.000000000000000000, 0.000000000000000000 ) ) ;
#687 = VERTEX_POINT ( 'NONE', #1191 ) ;
#688 = CARTESIAN_POINT ( 'NONE',  ( -0.8000000000000001554, 0.03999999999999999389, -0.3599999999999998201 ) ) ;
#689 = SURFACE_STYLE_FILL_AREA ( #1179 ) ;
#690 = EDGE_CURVE ( 'NONE', #527, #831, #503, .T. ) ;
#691 = SURFACE_STYLE_FILL_AREA ( #393 ) ;
#692 = PLANE ( 'NONE',  #565 ) ;
#693 = VECTOR ( 'NONE', #333, 1000.000000000000000 ) ;
#694 = VERTEX_POINT ( 'NONE', #22 ) ;
#695 = AXIS2_PLACEMENT_3D ( 'NONE', #515, #905, #714 ) ;
#696 = CYLINDRICAL_SURFACE ( 'NONE', #758, 0.03999999999999999389 ) ;
#697 = LINE ( 'NONE', #1093, #713 ) ;
#698 = CARTESIAN_POINT ( 'NONE',  ( 0.7600000000000001199, 0.04000000000000000083, -0.3599999999999998201 ) ) ;
#699 = EDGE_CURVE ( 'NONE', #6, #527, #525, .T. ) ;
#700 = CARTESIAN_POINT ( 'NONE',  ( -0.4500000000000000666, 0.01333333333333333245, 0.3599999999999998201 ) ) ;
#701 = VERTEX_POINT ( 'NONE', #719 ) ;
#702 = CIRCLE ( 'NONE', #397, 0.03999999999999999389 ) ;
#703 = DIRECTION ( 'NONE',  ( 0.000000000000000000, -1.000000000000000000, 0.000000000000000000 ) ) ;
#704 = DIRECTION ( 'NONE',  ( -1.000000000000000000, 0.000000000000000000, 0.000000000000000000 ) ) ;
#705 = CIRCLE ( 'NONE', #1141, 0.03999999999999999389 ) ;
#706 = EDGE_LOOP ( 'NONE', ( #357, #223, #1261 ) ) ;
#707 = VERTEX_POINT ( 'NONE', #808 ) ;
#708 = DIRECTION ( 'NONE',  ( 0.000000000000000000, 0.000000000000000000, 1.000000000000000000 ) ) ;
#709 = DIRECTION ( 'NONE',  ( 0.000000000000000000, 0.000000000000000000, 1.000000000000000000 ) ) ;
#710 = EDGE_CURVE ( 'NONE', #911, #687, #1205, .T. ) ;
#711 = SPHERICAL_SURFACE ( 'NONE', #1193, 0.04000000000000000083 ) ;
#712 = EDGE_LOOP ( 'NONE', ( #800, #573, #508, #898 ) ) ;
#713 = VECTOR ( 'NONE', #213, 1000.000000000000000 ) ;
#714 = DIRECTION ( 'NONE',  ( 0.000000000000000000, 0.000000000000000000, -1.000000000000000000 ) ) ;
#715 = DIRECTION ( 'NONE',  ( 0.000000000000000000, 0.000000000000000000, -1.000000000000000000 ) ) ;
#716 = AXIS2_PLACEMENT_3D ( 'NONE', #930, #1232, #139 ) ;
#717 = LINE ( 'NONE', #512, #1216 ) ;
#718 = ORIENTED_EDGE ( 'NONE', *, *, #918, .F. ) ;
#719 = CARTESIAN_POINT ( 'NONE',  ( -0.4500000000000000666, 0.9499999999999999556, 0.3599999999999998201 ) ) ;
#720 = CARTESIAN_POINT ( 'NONE',  ( -0.8000000000000001554, 0.9100000000000000311, -0.3999999999999998002 ) ) ;
#721 = ADVANCED_FACE ( 'NONE', ( #1184 ), #1105, .T. ) ;
#722 = AXIS2_PLACEMENT_3D ( 'NONE', #312, #1095, #505 ) ;
#723 = ORIENTED_EDGE ( 'NONE', *, *, #699, .T. ) ;
#724 = ORIENTED_EDGE ( 'NONE', *, *, #281, .F. ) ;
#725 = DIRECTION ( 'NONE',  ( 0.000000000000000000, 1.000000000000000000, 0.000000000000000000 ) ) ;
#726 = DIRECTION ( 'NONE',  ( 0.000000000000000000, 0.000000000000000000, 1.000000000000000000 ) ) ;
#727 = EDGE_CURVE ( 'NONE', #445, #1054, #232, .T. ) ;
#728 = CARTESIAN_POINT ( 'NONE',  ( 0.7600000000000000089, 0.9499999999999999556, 0.3600000000000000977 ) ) ;
#729 = ORIENTED_EDGE ( 'NONE', *, *, #501, .F. ) ;
#730 = ADVANCED_FACE ( 'NONE', ( #113 ), #207, .F. ) ;
#731 = VERTEX_POINT ( 'NONE', #35 ) ;
#732 = DIRECTION ( 'NONE',  ( 0.000000000000000000, -1.000000000000000000, -0.000000000000000000 ) ) ;
#733 = CARTESIAN_POINT ( 'NONE',  ( 0.7600000000000001199, 0.03999999999999999389, -0.3599999999999998201 ) ) ;
#734 = CARTESIAN_POINT ( 'NONE',  ( 0.4500000000000001776, 0.9100000000000000311, -0.3999999999999998002 ) ) ;
#735 = CARTESIAN_POINT ( 'NONE',  ( -0.4500000000000001776, 0.9499999999999999556, -0.3999999999999998002 ) ) ;
#736 = ORIENTED_EDGE ( 'NONE', *, *, #425, .F. ) ;
#737 = EDGE_LOOP ( 'NONE', ( #489, #438, #1254 ) ) ;
#738 = SURFACE_SIDE_STYLE ('',( #550 ) ) ;
#739 = DIRECTION ( 'NONE',  ( 1.000000000000000000, 0.000000000000000000, 0.000000000000000000 ) ) ;
#740 = FACE_OUTER_BOUND ( 'NONE', #885, .T. ) ;
#741 = DIRECTION ( 'NONE',  ( -1.000000000000000000, 0.000000000000000000, 0.000000000000000000 ) ) ;
#742 = AXIS2_PLACEMENT_3D ( 'NONE', #1274, #776, #1269 ) ;
#743 = COLOUR_RGB ( '',0.7921568627450980005, 0.8196078431372548767, 0.9333333333333333481 ) ;
#744 = CARTESIAN_POINT ( 'NONE',  ( 0.7600000000000001199, 0.9499999999999999556, -0.3599999999999998201 ) ) ;
#745 = EDGE_CURVE ( 'NONE', #395, #588, #984, .T. ) ;
#746 = EDGE_CURVE ( 'NONE', #832, #395, #257, .T. ) ;
#747 = ORIENTED_EDGE ( 'NONE', *, *, #1074, .T. ) ;
#748 = CARTESIAN_POINT ( 'NONE',  ( -0.8000000000000000444, 0.9100000000000000311, 0.3600000000000000977 ) ) ;
#749 = EDGE_CURVE ( 'NONE', #79, #839, #970, .T. ) ;
#750 = DIRECTION ( 'NONE',  ( 1.355252715606880789E-16, -0.000000000000000000, -1.000000000000000000 ) ) ;
#751 = CARTESIAN_POINT ( 'NONE',  ( 500000.0000000000582, 0.9100000000000000311, 0.3599999999566319553 ) ) ;
#752 = ORIENTED_EDGE ( 'NONE', *, *, #847, .T. ) ;
#753 = ORIENTED_EDGE ( 'NONE', *, *, #786, .T. ) ;
#754 = LINE ( 'NONE', #273, #234 ) ;
#755 = VECTOR ( 'NONE', #957, 1000.000000000000000 ) ;
#756 = AXIS2_PLACEMENT_3D ( 'NONE', #178, #349, #567 ) ;
#757 = DIRECTION ( 'NONE',  ( 0.000000000000000000, -1.000000000000000000, 0.000000000000000000 ) ) ;
#758 = AXIS2_PLACEMENT_3D ( 'NONE', #887, #9, #1100 ) ;
#759 = ORIENTED_EDGE ( 'NONE', *, *, #180, .F. ) ;
#760 = ORIENTED_EDGE ( 'NONE', *, *, #341, .F. ) ;
#761 = DIRECTION ( 'NONE',  ( 0.000000000000000000, 0.000000000000000000, 1.000000000000000000 ) ) ;
#762 = EDGE_CURVE ( 'NONE', #627, #111, #16, .T. ) ;
#763 =( NAMED_UNIT ( * ) PLANE_ANGLE_UNIT ( ) SI_UNIT ( $, .RADIAN. ) );
#764 = DIRECTION ( 'NONE',  ( 0.000000000000000000, -0.000000000000000000, 1.000000000000000000 ) ) ;
#765 = VECTOR ( 'NONE', #486, 1000.000000000000000 ) ;
#766 = EDGE_LOOP ( 'NONE', ( #555, #556, #1025 ) ) ;
#767 = PRODUCT_CONTEXT ( 'NONE', #31, 'mechanical' ) ;
#768 = LINE ( 'NONE', #285, #361 ) ;
#769 = SURFACE_STYLE_FILL_AREA ( #869 ) ;
#770 = EDGE_CURVE ( 'NONE', #929, #418, #606, .T. ) ;
#771 = FACE_OUTER_BOUND ( 'NONE', #532, .T. ) ;
#772 = VERTEX_POINT ( 'NONE', #421 ) ;
#773 = EDGE_CURVE ( 'NONE', #506, #1144, #675, .T. ) ;
#774 = FACE_OUTER_BOUND ( 'NONE', #1137, .T. ) ;
#775 = ORIENTED_EDGE ( 'NONE', *, *, #1246, .F. ) ;
#776 = DIRECTION ( 'NONE',  ( -1.000000000000000000, 0.000000000000000000, 0.000000000000000000 ) ) ;
#777 = DIRECTION ( 'NONE',  ( 0.000000000000000000, 0.000000000000000000, 1.000000000000000000 ) ) ;
#778 = CARTESIAN_POINT ( 'NONE',  ( -0.7600000000000000089, 0.9100000000000000311, 0.3600000000000000977 ) ) ;
#779 = AXIS2_PLACEMENT_3D ( 'NONE', #952, #853, #1157 ) ;
#780 = EDGE_LOOP ( 'NONE', ( #1084, #793, #971, #838 ) ) ;
#781 = VECTOR ( 'NONE', #972, 1000.000000000000000 ) ;
#782 = EDGE_CURVE ( 'NONE', #687, #527, #875, .T. ) ;
#783 = EDGE_CURVE ( 'NONE', #707, #911, #1212, .T. ) ;
#784 = DIRECTION ( 'NONE',  ( 0.000000000000000000, 0.000000000000000000, -1.000000000000000000 ) ) ;
#785 = CLOSED_SHELL ( 'NONE', ( #855, #274, #137, #878, #51, #653, #594, #1114, #8, #821, #1022, #1000, #41, #89, #1166, #933, #295, #1156 ) ) ;
#786 = EDGE_CURVE ( 'NONE', #506, #707, #697, .T. ) ;
#787 = CARTESIAN_POINT ( 'NONE',  ( 0.8000000000000001554, 0.9499999999999999556, -0.3999999999999998002 ) ) ;
#788 = FACE_OUTER_BOUND ( 'NONE', #389, .T. ) ;
#789 = ORIENTED_EDGE ( 'NONE', *, *, #474, .F. ) ;
#790 = DIRECTION ( 'NONE',  ( 0.000000000000000000, 0.000000000000000000, -1.000000000000000000 ) ) ;
#791 = CARTESIAN_POINT ( 'NONE',  ( 500000.0000000000582, 0.01333333333333333245, -0.3600000000433677405 ) ) ;
#792 = CARTESIAN_POINT ( 'NONE',  ( 0.8000000000000001554, 0.03999999999999999389, -0.3599999999999998201 ) ) ;
#793 = ORIENTED_EDGE ( 'NONE', *, *, #1180, .T. ) ;
#794 = AXIS2_PLACEMENT_3D ( 'NONE', #212, #104, #1092 ) ;
#795 = DIRECTION ( 'NONE',  ( -1.000000000000000000, 0.000000000000000000, 0.000000000000000000 ) ) ;
#796 = DIRECTION ( 'NONE',  ( -1.355252715606880789E-16, 0.000000000000000000, 1.000000000000000000 ) ) ;
#797 = DIRECTION ( 'NONE',  ( -1.000000000000000000, 0.000000000000000000, 0.000000000000000000 ) ) ;
#798 = ADVANCED_FACE ( 'NONE', ( #599 ), #992, .T. ) ;
#799 = ORIENTED_EDGE ( 'NONE', *, *, #1202, .F. ) ;
#800 = ORIENTED_EDGE ( 'NONE', *, *, #575, .F. ) ;
#801 = VECTOR ( 'NONE', #370, 1000.000000000000000 ) ;
#802 = CARTESIAN_POINT ( 'NONE',  ( -0.7600000000000000089, 0.9499999999999999556, 0.3600000000000000977 ) ) ;
#803 = CARTESIAN_POINT ( 'NONE',  ( 0.8000000000000000444, 0.9499999999999999556, 0.3600000000000000422 ) ) ;
#804 = DIRECTION ( 'NONE',  ( -1.000000000000000000, 0.000000000000000000, 0.000000000000000000 ) ) ;
#805 = ORIENTED_EDGE ( 'NONE', *, *, #200, .T. ) ;
#806 = EDGE_LOOP ( 'NONE', ( #13, #753, #1215, #1172 ) ) ;
#807 = FACE_OUTER_BOUND ( 'NONE', #583, .T. ) ;
#808 = CARTESIAN_POINT ( 'NONE',  ( 0.8000000000000001554, 0.03999999999999999389, -0.3599999999999998201 ) ) ;
#809 = VERTEX_POINT ( 'NONE', #748 ) ;
#810 = AXIS2_PLACEMENT_3D ( 'NONE', #733, #368, #652 ) ;
#811 = ADVANCED_FACE ( 'NONE', ( #529 ), #645, .F. ) ;
#812 = ORIENTED_EDGE ( 'NONE', *, *, #481, .F. ) ;
#813 = CARTESIAN_POINT ( 'NONE',  ( -0.4500000000000001776, 0.04000000000000021594, -0.3999999999999998002 ) ) ;
#814 = DIRECTION ( 'NONE',  ( 1.000000000000000000, -0.000000000000000000, 0.000000000000000000 ) ) ;
#815 = PRESENTATION_LAYER_ASSIGNMENT (  '', '', ( #374 ) ) ;
#816 = DIRECTION ( 'NONE',  ( 1.000000000000000000, 0.000000000000000000, 0.000000000000000000 ) ) ;
#817 = ORIENTED_EDGE ( 'NONE', *, *, #283, .F. ) ;
#818 = ORIENTED_EDGE ( 'NONE', *, *, #996, .T. ) ;
#819 = FACE_OUTER_BOUND ( 'NONE', #319, .T. ) ;
#820 = ADVANCED_FACE ( 'NONE', ( #161 ), #931, .F. ) ;
#821 = ADVANCED_FACE ( 'NONE', ( #155 ), #1133, .T. ) ;
#822 = PLANE ( 'NONE',  #620 ) ;
#823 = VECTOR ( 'NONE', #829, 1000.000000000000000 ) ;
#824 = PRODUCT_DEFINITION ( 'UNKNOWN', '', #1130, #603 ) ;
#825 = ORIENTED_EDGE ( 'NONE', *, *, #1256, .T. ) ;
#826 = ORIENTED_EDGE ( 'NONE', *, *, #727, .F. ) ;
#827 = CARTESIAN_POINT ( 'NONE',  ( 500000.0000000000582, 0.9366666666666666474, -0.3600000000433679626 ) ) ;
#828 = FACE_OUTER_BOUND ( 'NONE', #472, .T. ) ;
#829 = DIRECTION ( 'NONE',  ( -0.000000000000000000, 1.000000000000000000, -0.000000000000000000 ) ) ;
#830 = LINE ( 'NONE', #356, #1129 ) ;
#831 = VERTEX_POINT ( 'NONE', #238 ) ;
#832 = VERTEX_POINT ( 'NONE', #623 ) ;
#833 = CARTESIAN_POINT ( 'NONE',  ( -0.8000000000000001554, 0.9499999999999999556, -0.3999999999999998002 ) ) ;
#834 = CIRCLE ( 'NONE', #1207, 0.03999999999999999389 ) ;
#835 = DIRECTION ( 'NONE',  ( 0.000000000000000000, 0.000000000000000000, 1.000000000000000000 ) ) ;
#836 = CIRCLE ( 'NONE', #941, 0.03999999999999999389 ) ;
#837 = LINE ( 'NONE', #1252, #208 ) ;
#838 = ORIENTED_EDGE ( 'NONE', *, *, #690, .T. ) ;
#839 = VERTEX_POINT ( 'NONE', #1020 ) ;
#840 = DIRECTION ( 'NONE',  ( 0.000000000000000000, 0.000000000000000000, 1.000000000000000000 ) ) ;
#841 = DIRECTION ( 'NONE',  ( 0.000000000000000000, 0.000000000000000000, 1.000000000000000000 ) ) ;
#842 = DIRECTION ( 'NONE',  ( -1.000000000000000000, 0.000000000000000000, 0.000000000000000000 ) ) ;
#843 = PRESENTATION_LAYER_ASSIGNMENT (  '', '', ( #903 ) ) ;
#844 = FACE_OUTER_BOUND ( 'NONE', #473, .T. ) ;
#845 = AXIS2_PLACEMENT_3D ( 'NONE', #11, #228, #816 ) ;
#846 = ORIENTED_EDGE ( 'NONE', *, *, #180, .T. ) ;
#847 = EDGE_CURVE ( 'NONE', #809, #1136, #166, .T. ) ;
#848 = EDGE_LOOP ( 'NONE', ( #150, #1208, #608, #1194 ) ) ;
#849 = DIRECTION ( 'NONE',  ( 1.000000000000000000, -0.000000000000000000, -0.000000000000000000 ) ) ;
#850 = DIRECTION ( 'NONE',  ( -0.000000000000000000, -1.000000000000000000, -0.000000000000000000 ) ) ;
#851 = CARTESIAN_POINT ( 'NONE',  ( -0.8000000000000000444, 0.9499999999999999556, 0.3600000000000000422 ) ) ;
#852 = DIRECTION ( 'NONE',  ( 0.000000000000000000, -1.000000000000000000, 0.000000000000000000 ) ) ;
#853 = DIRECTION ( 'NONE',  ( 1.000000000000000000, -0.000000000000000000, -1.355252715606880789E-16 ) ) ;
#854 = ORIENTED_EDGE ( 'NONE', *, *, #377, .T. ) ;
#855 = ADVANCED_FACE ( 'NONE', ( #819 ), #551, .F. ) ;
#856 = AXIS2_PLACEMENT_3D ( 'NONE', #1146, #1124, #265 ) ;
#857 = VECTOR ( 'NONE', #320, 1000.000000000000000 ) ;
#858 = DIRECTION ( 'NONE',  ( 0.000000000000000000, 1.000000000000000000, -0.000000000000000000 ) ) ;
#859 = CYLINDRICAL_SURFACE ( 'NONE', #1057, 0.03999999999999999389 ) ;
#860 = ORIENTED_EDGE ( 'NONE', *, *, #1044, .F. ) ;
#861 = CARTESIAN_POINT ( 'NONE',  ( 0.4500000000007275958, 0.9100000000000000311, 0.3866666666666666030 ) ) ;
#862 = EDGE_CURVE ( 'NONE', #284, #1054, #64, .T. ) ;
#863 = DIRECTION ( 'NONE',  ( -1.000000000000000000, 0.000000000000000000, 0.000000000000000000 ) ) ;
#864 = DIRECTION ( 'NONE',  ( 1.355252715606880789E-16, -0.000000000000000000, 1.000000000000000000 ) ) ;
#865 = VECTOR ( 'NONE', #625, 1000.000000000000000 ) ;
#866 = EDGE_CURVE ( 'NONE', #615, #256, #834, .T. ) ;
#867 = AXIS2_PLACEMENT_3D ( 'NONE', #127, #612, #906 ) ;
#868 = ORIENTED_EDGE ( 'NONE', *, *, #501, .T. ) ;
#869 = FILL_AREA_STYLE ('',( #386 ) ) ;
#870 = DIRECTION ( 'NONE',  ( -1.000000000000000000, 0.000000000000000000, 1.355252715606882022E-16 ) ) ;
#871 = PRODUCT_DEFINITION_SHAPE ( 'NONE', 'NONE',  #824 ) ;
#872 = ORIENTED_EDGE ( 'NONE', *, *, #942, .T. ) ;
#873 = DIRECTION ( 'NONE',  ( 1.355252715606880789E-16, -0.000000000000000000, -1.000000000000000000 ) ) ;
#874 = LINE ( 'NONE', #1160, #665 ) ;
#875 = CIRCLE ( 'NONE', #1049, 0.03999999999999999389 ) ;
#876 = LINE ( 'NONE', #190, #47 ) ;
#877 = COLOUR_RGB ( '',0.7921568627450980005, 0.8196078431372548767, 0.9333333333333333481 ) ;
#878 = ADVANCED_FACE ( 'NONE', ( #44 ), #454, .F. ) ;
#879 = EDGE_LOOP ( 'NONE', ( #548, #805, #846, #20 ) ) ;
#880 = EDGE_CURVE ( 'NONE', #181, #911, #348, .T. ) ;
#881 = CARTESIAN_POINT ( 'NONE',  ( 0.8000000000000000444, 0.9499999999999999556, 0.4000000000000000777 ) ) ;
#882 = CARTESIAN_POINT ( 'NONE',  ( -0.4500000000000001776, 0.9100000000000000311, -0.3599999999999998201 ) ) ;
#883 = SPHERICAL_SURFACE ( 'NONE', #1243, 0.04000000000000000083 ) ;
#884 = VECTOR ( 'NONE', #1265, 1000.000000000000000 ) ;
#885 = EDGE_LOOP ( 'NONE', ( #1046, #88, #747, #723 ) ) ;
#886 = VECTOR ( 'NONE', #1007, 1000.000000000000000 ) ;
#887 = CARTESIAN_POINT ( 'NONE',  ( -0.7600000000000001199, 0.9499999999999999556, -0.3599999999999998201 ) ) ;
#888 = DIRECTION ( 'NONE',  ( 0.000000000000000000, 0.000000000000000000, 1.000000000000000000 ) ) ;
#889 = CYLINDRICAL_SURFACE ( 'NONE', #1139, 0.02666666666666664756 ) ;
#890 = LINE ( 'NONE', #700, #1009 ) ;
#891 = ORIENTED_EDGE ( 'NONE', *, *, #410, .F. ) ;
#892 = CARTESIAN_POINT ( 'NONE',  ( 0.7600000000000000089, 0.9100000000000000311, 0.3600000000000000977 ) ) ;
#893 = CARTESIAN_POINT ( 'NONE',  ( 500000.0000000000582, 0.9366666666666666474, -0.3600000000433679626 ) ) ;
#894 = EDGE_CURVE ( 'NONE', #615, #707, #530, .T. ) ;
#895 = CARTESIAN_POINT ( 'NONE',  ( 0.4500000000007275958, 0.01333333333333334286, 0.3599999999999997091 ) ) ;
#896 = AXIS2_PLACEMENT_3D ( 'NONE', #632, #1028, #1142 ) ;
#897 = ORIENTED_EDGE ( 'NONE', *, *, #683, .T. ) ;
#898 = ORIENTED_EDGE ( 'NONE', *, *, #334, .F. ) ;
#899 = DIRECTION ( 'NONE',  ( -1.000000000000000000, 0.000000000000000000, 0.000000000000000000 ) ) ;
#900 = CARTESIAN_POINT ( 'NONE',  ( -0.8000000000000000444, 0.03999999999999999389, 0.4000000000000000777 ) ) ;
#901 = CARTESIAN_POINT ( 'NONE',  ( -0.7600000000000001199, 0.9499999999999999556, -0.3599999999999998201 ) ) ;
#902 = VERTEX_POINT ( 'NONE', #1224 ) ;
#903 = STYLED_ITEM ( 'NONE', ( #978 ), #227 ) ;
#904 = STYLED_ITEM ( 'NONE', ( #1069 ), #252 ) ;
#905 = DIRECTION ( 'NONE',  ( 0.000000000000000000, -1.000000000000000000, 0.000000000000000000 ) ) ;
#906 = DIRECTION ( 'NONE',  ( -1.355252715606880789E-16, 0.000000000000000000, 1.000000000000000000 ) ) ;
#907 = DIRECTION ( 'NONE',  ( 1.000000000000000000, 0.000000000000000000, 1.355252715606880789E-16 ) ) ;
#908 = VECTOR ( 'NONE', #4, 1000.000000000000000 ) ;
#909 = EDGE_CURVE ( 'NONE', #71, #79, #147, .T. ) ;
#910 = ORIENTED_EDGE ( 'NONE', *, *, #1202, .T. ) ;
#911 = VERTEX_POINT ( 'NONE', #244 ) ;
#912 = SPHERICAL_SURFACE ( 'NONE', #1109, 0.04000000000000000083 ) ;
#913 = DIRECTION ( 'NONE',  ( -1.000000000000000000, 0.000000000000000000, 0.000000000000000000 ) ) ;
#914 = FACE_OUTER_BOUND ( 'NONE', #69, .T. ) ;
#915 = ORIENTED_EDGE ( 'NONE', *, *, #350, .F. ) ;
#916 = EDGE_CURVE ( 'NONE', #256, #302, #917, .T. ) ;
#917 = LINE ( 'NONE', #435, #269 ) ;
#918 = EDGE_CURVE ( 'NONE', #1182, #302, #557, .T. ) ;
#919 = DIRECTION ( 'NONE',  ( 0.000000000000000000, 0.000000000000000000, 1.000000000000000000 ) ) ;
#920 = ORIENTED_EDGE ( 'NONE', *, *, #921, .F. ) ;
#921 = EDGE_CURVE ( 'NONE', #305, #172, #306, .T. ) ;
#922 = ORIENTED_EDGE ( 'NONE', *, *, #388, .F. ) ;
#923 = CARTESIAN_POINT ( 'NONE',  ( 0.8000000000000000444, 0.03999999999999999389, 0.4000000000000000777 ) ) ;
#924 = AXIS2_PLACEMENT_3D ( 'NONE', #679, #1277, #585 ) ;
#925 = LINE ( 'NONE', #851, #823 ) ;
#926 = VECTOR ( 'NONE', #873, 1000.000000000000000 ) ;
#927 = DIRECTION ( 'NONE',  ( 0.000000000000000000, -1.000000000000000000, 0.000000000000000000 ) ) ;
#928 = ORIENTED_EDGE ( 'NONE', *, *, #1044, .T. ) ;
#929 = VERTEX_POINT ( 'NONE', #73 ) ;
#930 = CARTESIAN_POINT ( 'NONE',  ( -0.4500000000000000666, 0.03999999999999999389, 0.3600000000000000977 ) ) ;
#931 = PLANE ( 'NONE',  #328 ) ;
#932 = FACE_OUTER_BOUND ( 'NONE', #1010, .T. ) ;
#933 = ADVANCED_FACE ( 'NONE', ( #828 ), #1151, .T. ) ;
#934 = DIRECTION ( 'NONE',  ( 0.000000000000000000, -1.000000000000000000, 0.000000000000000000 ) ) ;
#935 = ORIENTED_EDGE ( 'NONE', *, *, #782, .T. ) ;
#936 = ORIENTED_EDGE ( 'NONE', *, *, #402, .T. ) ;
#937 = PRESENTATION_STYLE_ASSIGNMENT (( #362 ) ) ;
#938 = DIRECTION ( 'NONE',  ( 0.000000000000000000, 0.000000000000000000, 1.000000000000000000 ) ) ;
#939 = VECTOR ( 'NONE', #1037, 1000.000000000000000 ) ;
#940 = DIRECTION ( 'NONE',  ( 1.355252715606880789E-16, 0.000000000000000000, -1.000000000000000000 ) ) ;
#941 = AXIS2_PLACEMENT_3D ( 'NONE', #991, #134, #790 ) ;
#942 = EDGE_CURVE ( 'NONE', #1054, #324, #471, .T. ) ;
#943 = CARTESIAN_POINT ( 'NONE',  ( 0.4500000000007275958, 0.03999999999999999389, -0.3599999999999999312 ) ) ;
#944 = CARTESIAN_POINT ( 'NONE',  ( -0.8000000000000000444, 0.03999999999999999389, 0.3600000000000000977 ) ) ;
#945 = ORIENTED_EDGE ( 'NONE', *, *, #575, .T. ) ;
#946 = ADVANCED_FACE ( 'NONE', ( #844 ), #1244, .T. ) ;
#947 =( NAMED_UNIT ( * ) SI_UNIT ( $, .STERADIAN. ) SOLID_ANGLE_UNIT ( ) );
#948 = CARTESIAN_POINT ( 'NONE',  ( 0.4500000000000001776, 0.000000000000000000, -0.3999999999999998002 ) ) ;
#949 = CYLINDRICAL_SURFACE ( 'NONE', #539, 0.03999999999999999389 ) ;
#950 = DIRECTION ( 'NONE',  ( -1.355252715606880789E-16, -0.000000000000000000, -1.000000000000000000 ) ) ;
#951 = AXIS2_PLACEMENT_3D ( 'NONE', #141, #993, #114 ) ;
#952 = CARTESIAN_POINT ( 'NONE',  ( -0.4500000000000000666, 0.9100000000000000311, 0.3600000000000000977 ) ) ;
#953 = ADVANCED_FACE ( 'NONE', ( #1235 ), #554, .T. ) ;
#954 = AXIS2_PLACEMENT_3D ( 'NONE', #1271, #196, #282 ) ;
#955 = EDGE_LOOP ( 'NONE', ( #736, #423, #1023, #976 ) ) ;
#956 = CARTESIAN_POINT ( 'NONE',  ( 500000.0000000000582, 0.03999999999999999389, -0.3600000000433679626 ) ) ;
#957 = DIRECTION ( 'NONE',  ( -1.000000000000000000, 0.000000000000000000, 0.000000000000000000 ) ) ;
#958 = ORIENTED_EDGE ( 'NONE', *, *, #1220, .T. ) ;
#959 = EDGE_CURVE ( 'NONE', #1248, #181, #837, .T. ) ;
#960 = ORIENTED_EDGE ( 'NONE', *, *, #474, .T. ) ;
#961 = FACE_OUTER_BOUND ( 'NONE', #55, .T. ) ;
#962 = AXIS2_PLACEMENT_3D ( 'NONE', #657, #1052, #371 ) ;
#963 = VECTOR ( 'NONE', #1132, 1000.000000000000000 ) ;
#964 = CARTESIAN_POINT ( 'NONE',  ( 0.4500000000000000666, 0.9100000000000000311, 0.4000000000000000777 ) ) ;
#965 = DIRECTION ( 'NONE',  ( -1.000000000000000000, 0.000000000000000000, 0.000000000000000000 ) ) ;
#966 = ORIENTED_EDGE ( 'NONE', *, *, #163, .T. ) ;
#967 = SURFACE_STYLE_USAGE ( .BOTH. , #1067 ) ;
#968 = LINE ( 'NONE', #493, #908 ) ;
#969 = MECHANICAL_DESIGN_GEOMETRIC_PRESENTATION_REPRESENTATION (  '', ( #904 ), #990 ) ;
#970 = CIRCLE ( 'NONE', #177, 0.02666666666666664756 ) ;
#971 = ORIENTED_EDGE ( 'NONE', *, *, #388, .T. ) ;
#972 = DIRECTION ( 'NONE',  ( 1.355252715606880789E-16, 0.000000000000000000, -1.000000000000000000 ) ) ;
#973 = EDGE_CURVE ( 'NONE', #351, #111, #1126, .T. ) ;
#974 = CARTESIAN_POINT ( 'NONE',  ( 0.4500000000000000666, 0.03999999999999999389, 0.3600000000000000977 ) ) ;
#975 = DIRECTION ( 'NONE',  ( 0.000000000000000000, -1.000000000000000000, 0.000000000000000000 ) ) ;
#976 = ORIENTED_EDGE ( 'NONE', *, *, #783, .T. ) ;
#977 = CYLINDRICAL_SURFACE ( 'NONE', #255, 0.02666666666666664756 ) ;
#978 = PRESENTATION_STYLE_ASSIGNMENT (( #1164 ) ) ;
#979 = AXIS2_PLACEMENT_3D ( 'NONE', #408, #326, #709 ) ;
#980 = DIRECTION ( 'NONE',  ( 0.000000000000000000, 0.000000000000000000, 1.000000000000000000 ) ) ;
#981 = AXIS2_PLACEMENT_3D ( 'NONE', #668, #1072, #271 ) ;
#982 = ORIENTED_EDGE ( 'NONE', *, *, #921, .T. ) ;
#983 = CARTESIAN_POINT ( 'NONE',  ( -0.4500000000000001776, 0.03999999999999999389, -0.3866666666666664365 ) ) ;
#984 = LINE ( 'NONE', #1013, #580 ) ;
#985 = FACE_OUTER_BOUND ( 'NONE', #848, .T. ) ;
#986 = DIRECTION ( 'NONE',  ( -1.000000000000000000, -0.000000000000000000, -0.000000000000000000 ) ) ;
#987 = VECTOR ( 'NONE', #477, 1000.000000000000000 ) ;
#988 = UNCERTAINTY_MEASURE_WITH_UNIT (LENGTH_MEASURE( 1.000000000000000082E-05 ), #469, 'distance_accuracy_value', 'NONE');
#989 = EDGE_LOOP ( 'NONE', ( #42, #1079, #173, #179 ) ) ;
#990 =( GEOMETRIC_REPRESENTATION_CONTEXT ( 3 ) GLOBAL_UNCERTAINTY_ASSIGNED_CONTEXT ( ( #301 ) ) GLOBAL_UNIT_ASSIGNED_CONTEXT ( ( #194, #96, #999 ) ) REPRESENTATION_CONTEXT ( 'NONE', 'WORKASPACE' ) );
#991 = CARTESIAN_POINT ( 'NONE',  ( -0.7600000000000001199, 0.03999999999999999389, -0.3599999999999998201 ) ) ;
#992 = CYLINDRICAL_SURFACE ( 'NONE', #18, 0.02666666666666669960 ) ;
#993 = DIRECTION ( 'NONE',  ( -0.000000000000000000, -1.000000000000000000, -0.000000000000000000 ) ) ;
#994 = DIRECTION ( 'NONE',  ( 0.000000000000000000, 0.000000000000000000, 1.000000000000000000 ) ) ;
#995 = ORIENTED_EDGE ( 'NONE', *, *, #350, .T. ) ;
#996 = EDGE_CURVE ( 'NONE', #418, #1108, #553, .T. ) ;
#997 = CARTESIAN_POINT ( 'NONE',  ( 0.4500000000000001776, 0.9499999999999999556, -0.3599999999999998201 ) ) ;
#998 = CARTESIAN_POINT ( 'NONE',  ( -0.4500000000000001776, 0.9100000000000000311, -0.3599999999999998201 ) ) ;
#999 =( NAMED_UNIT ( * ) SI_UNIT ( $, .STERADIAN. ) SOLID_ANGLE_UNIT ( ) );
#1000 = ADVANCED_FACE ( 'NONE', ( #1043 ), #171, .T. ) ;
#1001 = AXIS2_PLACEMENT_3D ( 'NONE', #34, #899, #708 ) ;
#1002 = ORIENTED_EDGE ( 'NONE', *, *, #84, .T. ) ;
#1003 = VECTOR ( 'NONE', #154, 1000.000000000000000 ) ;
#1004 = ORIENTED_EDGE ( 'NONE', *, *, #495, .F. ) ;
#1005 = FACE_OUTER_BOUND ( 'NONE', #19, .T. ) ;
#1006 = DIRECTION ( 'NONE',  ( 0.000000000000000000, 0.000000000000000000, -1.000000000000000000 ) ) ;
#1007 = DIRECTION ( 'NONE',  ( -1.000000000000000000, -0.000000000000000000, 8.673617379884036705E-17 ) ) ;
#1008 = ORIENTED_EDGE ( 'NONE', *, *, #1247, .F. ) ;
#1009 = VECTOR ( 'NONE', #12, 1000.000000000000000 ) ;
#1010 = EDGE_LOOP ( 'NONE', ( #660, #54, #138, #81 ) ) ;
#1011 = CIRCLE ( 'NONE', #538, 0.03999999999999999389 ) ;
#1012 = CARTESIAN_POINT ( 'NONE',  ( 0.4500000000000000666, 0.000000000000000000, 0.3599999999999998201 ) ) ;
#1013 = CARTESIAN_POINT ( 'NONE',  ( -0.4500000000000001776, 0.9366666666666666474, -0.3599999999999998201 ) ) ;
#1014 = LINE ( 'NONE', #518, #886 ) ;
#1015 = AXIS2_PLACEMENT_3D ( 'NONE', #304, #93, #1083 ) ;
#1016 = EDGE_CURVE ( 'NONE', #1110, #6, #262, .T. ) ;
#1017 = EDGE_CURVE ( 'NONE', #701, #172, #559, .T. ) ;
#1018 = ORIENTED_EDGE ( 'NONE', *, *, #14, .T. ) ;
#1019 = EDGE_CURVE ( 'NONE', #578, #158, #830, .T. ) ;
#1020 = CARTESIAN_POINT ( 'NONE',  ( 0.4500000000007275958, 0.9366666666666666474, -0.3599999999999999312 ) ) ;
#1021 = DIRECTION ( 'NONE',  ( -1.355252715606880789E-16, -0.000000000000000000, -1.000000000000000000 ) ) ;
#1022 = ADVANCED_FACE ( 'NONE', ( #1259 ), #465, .T. ) ;
#1023 = ORIENTED_EDGE ( 'NONE', *, *, #1185, .T. ) ;
#1024 = AXIS2_PLACEMENT_3D ( 'NONE', #1055, #272, #174 ) ;
#1025 = ORIENTED_EDGE ( 'NONE', *, *, #880, .F. ) ;
#1026 = CARTESIAN_POINT ( 'NONE',  ( -0.4500000000000001776, 0.9100000000000000311, -0.3599999999999998201 ) ) ;
#1027 = DIRECTION ( 'NONE',  ( 8.673617379884036705E-17, -0.000000000000000000, 1.000000000000000000 ) ) ;
#1028 = DIRECTION ( 'NONE',  ( 1.000000000000000000, 0.000000000000000000, 0.000000000000000000 ) ) ;
#1029 = PRODUCT ( 'BMC1JY0100AN', 'BMC1JY0100AN', '', ( #767 ) ) ;
#1030 = ORIENTED_EDGE ( 'NONE', *, *, #334, .T. ) ;
#1031 = EDGE_CURVE ( 'NONE', #172, #264, #537, .T. ) ;
#1032 = ORIENTED_EDGE ( 'NONE', *, *, #916, .F. ) ;
#1033 = CARTESIAN_POINT ( 'NONE',  ( -0.7600000000000000089, 0.9499999999999999556, 0.4000000000000000777 ) ) ;
#1034 = DIRECTION ( 'NONE',  ( 0.000000000000000000, 0.000000000000000000, 1.000000000000000000 ) ) ;
#1035 = DIRECTION ( 'NONE',  ( -1.000000000000000000, -0.000000000000000000, 8.673617379884036705E-17 ) ) ;
#1036 =( GEOMETRIC_REPRESENTATION_CONTEXT ( 3 ) GLOBAL_UNCERTAINTY_ASSIGNED_CONTEXT ( ( #988 ) ) GLOBAL_UNIT_ASSIGNED_CONTEXT ( ( #469, #291, #376 ) ) REPRESENTATION_CONTEXT ( 'NONE', 'WORKASPACE' ) );
#1037 = DIRECTION ( 'NONE',  ( 1.000000000000000000, -0.000000000000000000, -0.000000000000000000 ) ) ;
#1038 = ORIENTED_EDGE ( 'NONE', *, *, #429, .F. ) ;
#1039 = ORIENTED_EDGE ( 'NONE', *, *, #7, .F. ) ;
#1040 = CARTESIAN_POINT ( 'NONE',  ( 0.7600000000000000089, 0.9100000000000000311, 0.4000000000000000777 ) ) ;
#1041 = CARTESIAN_POINT ( 'NONE',  ( 0.000000000000000000, 0.000000000000000000, 0.000000000000000000 ) ) ;
#1042 = CYLINDRICAL_SURFACE ( 'NONE', #600, 0.03999999999999999389 ) ;
#1043 = FACE_OUTER_BOUND ( 'NONE', #331, .T. ) ;
#1044 = EDGE_CURVE ( 'NONE', #809, #1098, #205, .T. ) ;
#1045 = ORIENTED_EDGE ( 'NONE', *, *, #918, .T. ) ;
#1046 = ORIENTED_EDGE ( 'NONE', *, *, #782, .F. ) ;
#1047 = CARTESIAN_POINT ( 'NONE',  ( -0.7600000000000001199, 0.9100000000000000311, -0.3599999999999998201 ) ) ;
#1048 = CARTESIAN_POINT ( 'NONE',  ( 0.4500000000007275958, 0.03999999999999999389, -0.3866666666666665475 ) ) ;
#1049 = AXIS2_PLACEMENT_3D ( 'NONE', #428, #888, #913 ) ;
#1050 = LINE ( 'NONE', #442, #5 ) ;
#1051 = ADVANCED_FACE ( 'NONE', ( #648 ), #164, .T. ) ;
#1052 = DIRECTION ( 'NONE',  ( 1.000000000000000000, 0.000000000000000000, -8.673617379884036705E-17 ) ) ;
#1053 = DIRECTION ( 'NONE',  ( 1.000000000000000000, -0.000000000000000000, 0.000000000000000000 ) ) ;
#1054 = VERTEX_POINT ( 'NONE', #53 ) ;
#1055 = CARTESIAN_POINT ( 'NONE',  ( -0.7600000000000001199, 0.9100000000000000311, -0.3599999999999998201 ) ) ;
#1056 = DIRECTION ( 'NONE',  ( -0.000000000000000000, 1.000000000000000000, -0.000000000000000000 ) ) ;
#1057 = AXIS2_PLACEMENT_3D ( 'NONE', #582, #387, #870 ) ;
#1058 = DIRECTION ( 'NONE',  ( 0.000000000000000000, 0.000000000000000000, 1.000000000000000000 ) ) ;
#1059 = VECTOR ( 'NONE', #536, 1000.000000000000000 ) ;
#1060 = EDGE_CURVE ( 'NONE', #446, #158, #187, .T. ) ;
#1061 = EDGE_CURVE ( 'NONE', #929, #71, #1068, .T. ) ;
#1062 = ORIENTED_EDGE ( 'NONE', *, *, #1063, .T. ) ;
#1063 = EDGE_CURVE ( 'NONE', #457, #305, #253, .T. ) ;
#1064 = EDGE_LOOP ( 'NONE', ( #928, #1002, #254 ) ) ;
#1065 = DIRECTION ( 'NONE',  ( 1.000000000000000000, 0.000000000000000000, -8.673617379884036705E-17 ) ) ;
#1066 = EDGE_LOOP ( 'NONE', ( #541, #124, #426, #513 ) ) ;
#1067 = SURFACE_SIDE_STYLE ('',( #689 ) ) ;
#1068 = CIRCLE ( 'NONE', #507, 0.02666666666666664756 ) ;
#1069 = PRESENTATION_STYLE_ASSIGNMENT (( #674 ) ) ;
#1070 = DIRECTION ( 'NONE',  ( 0.000000000000000000, 0.000000000000000000, 1.000000000000000000 ) ) ;
#1071 = EDGE_LOOP ( 'NONE', ( #62, #26, #461, #982, #165, #1018, #236, #872 ) ) ;
#1072 = DIRECTION ( 'NONE',  ( 0.000000000000000000, 0.000000000000000000, 1.000000000000000000 ) ) ;
#1073 = CARTESIAN_POINT ( 'NONE',  ( 0.7600000000000001199, 0.03999999999999999389, -0.3999999999999998002 ) ) ;
#1074 = EDGE_CURVE ( 'NONE', #506, #6, #1229, .T. ) ;
#1075 = CARTESIAN_POINT ( 'NONE',  ( 500000.0000000000582, 0.03999999999999999389, 0.3599999999566319553 ) ) ;
#1076 = CARTESIAN_POINT ( 'NONE',  ( 0.000000000000000000, 0.9499999999999999556, 0.000000000000000000 ) ) ;
#1077 = AXIS2_PLACEMENT_3D ( 'NONE', #881, #784, #85 ) ;
#1078 = PRESENTATION_LAYER_ASSIGNMENT (  '', '', ( #195 ) ) ;
#1079 = ORIENTED_EDGE ( 'NONE', *, *, #655, .F. ) ;
#1080 = CIRCLE ( 'NONE', #779, 0.03999999999999999389 ) ;
#1081 = LINE ( 'NONE', #95, #765 ) ;
#1082 = DIRECTION ( 'NONE',  ( -0.000000000000000000, 1.000000000000000000, -0.000000000000000000 ) ) ;
#1083 = DIRECTION ( 'NONE',  ( 0.000000000000000000, 0.000000000000000000, -1.000000000000000000 ) ) ;
#1084 = ORIENTED_EDGE ( 'NONE', *, *, #410, .T. ) ;
#1085 = DIRECTION ( 'NONE',  ( -1.355252715606880789E-16, 0.000000000000000000, -1.000000000000000000 ) ) ;
#1086 = CARTESIAN_POINT ( 'NONE',  ( 0.4500000000007275958, 0.01333333333333333245, 0.3599999998888691044 ) ) ;
#1087 =( NAMED_UNIT ( * ) SI_UNIT ( $, .STERADIAN. ) SOLID_ANGLE_UNIT ( ) );
#1088 = AXIS2_PLACEMENT_3D ( 'NONE', #1119, #535, #542 ) ;
#1089 = EDGE_CURVE ( 'NONE', #264, #457, #122, .T. ) ;
#1090 = DIRECTION ( 'NONE',  ( 1.355252715606880789E-16, 0.000000000000000000, 1.000000000000000000 ) ) ;
#1091 = ORIENTED_EDGE ( 'NONE', *, *, #1226, .T. ) ;
#1092 = DIRECTION ( 'NONE',  ( 0.000000000000000000, 0.000000000000000000, -1.000000000000000000 ) ) ;
#1093 = CARTESIAN_POINT ( 'NONE',  ( 0.8000000000000001554, 0.9499999999999999556, -0.3599999999999998201 ) ) ;
#1094 = LINE ( 'NONE', #1120, #865 ) ;
#1095 = DIRECTION ( 'NONE',  ( -1.000000000000000000, -0.000000000000000000, -0.000000000000000000 ) ) ;
#1096 = EDGE_CURVE ( 'NONE', #1222, #445, #449, .T. ) ;
#1097 = UNCERTAINTY_MEASURE_WITH_UNIT (LENGTH_MEASURE( 1.000000000000000082E-05 ), #1223, 'distance_accuracy_value', 'NONE');
#1098 = VERTEX_POINT ( 'NONE', #1104 ) ;
#1099 = AXIS2_PLACEMENT_3D ( 'NONE', #1125, #1027, #364 ) ;
#1100 = DIRECTION ( 'NONE',  ( 0.000000000000000000, 0.000000000000000000, -1.000000000000000000 ) ) ;
#1101 = DIRECTION ( 'NONE',  ( 1.000000000000000000, 0.000000000000000000, 0.000000000000000000 ) ) ;
#1102 = CARTESIAN_POINT ( 'NONE',  ( -0.8000000000000000444, 0.9499999999999999556, 0.4000000000000000777 ) ) ;
#1103 = VERTEX_POINT ( 'NONE', #813 ) ;
#1104 = CARTESIAN_POINT ( 'NONE',  ( -0.7600000000000000089, 0.9100000000000000311, 0.4000000000000000777 ) ) ;
#1105 = PLANE ( 'NONE',  #867 ) ;
#1106 = DIRECTION ( 'NONE',  ( 1.000000000000000000, 0.000000000000000000, -8.673617379884036705E-17 ) ) ;
#1107 = VECTOR ( 'NONE', #308, 1000.000000000000000 ) ;
#1108 = VERTEX_POINT ( 'NONE', #983 ) ;
#1109 = AXIS2_PLACEMENT_3D ( 'NONE', #892, #703, #795 ) ;
#1110 = VERTEX_POINT ( 'NONE', #997 ) ;
#1111 = CARTESIAN_POINT ( 'NONE',  ( -0.7600000000000000089, 0.000000000000000000, 0.3600000000000000977 ) ) ;
#1112 = DIRECTION ( 'NONE',  ( -0.000000000000000000, 1.000000000000000000, -0.000000000000000000 ) ) ;
#1113 = ADVANCED_FACE ( 'NONE', ( #598 ), #231, .F. ) ;
#1114 = ADVANCED_FACE ( 'NONE', ( #807 ), #617, .T. ) ;
#1115 = CARTESIAN_POINT ( 'NONE',  ( -0.4500000000000000666, 0.000000000000000000, 0.3599999999999998201 ) ) ;
#1116 = ORIENTED_EDGE ( 'NONE', *, *, #24, .T. ) ;
#1117 = AXIS2_PLACEMENT_3D ( 'NONE', #379, #864, #686 ) ;
#1118 = CIRCLE ( 'NONE', #416, 0.03999999999999999389 ) ;
#1119 = CARTESIAN_POINT ( 'NONE',  ( -0.7600000000000000089, 0.9100000000000000311, 0.3600000000000000977 ) ) ;
#1120 = CARTESIAN_POINT ( 'NONE',  ( -0.4500000000000001776, 0.03999999999999999389, -0.3866666666666664365 ) ) ;
#1121 = AXIS2_PLACEMENT_3D ( 'NONE', #778, #965, #980 ) ;
#1122 = ORIENTED_EDGE ( 'NONE', *, *, #102, .F. ) ;
#1123 = DIRECTION ( 'NONE',  ( -1.000000000000000000, -0.000000000000000000, 8.673617379884036705E-17 ) ) ;
#1124 = DIRECTION ( 'NONE',  ( -0.000000000000000000, 1.000000000000000000, -0.000000000000000000 ) ) ;
#1125 = CARTESIAN_POINT ( 'NONE',  ( 500000.0000000000582, 0.03999999999999999389, -0.3866666667100345789 ) ) ;
#1126 = LINE ( 'NONE', #267, #99 ) ;
#1127 = ADVANCED_FACE ( 'NONE', ( #1005 ), #912, .T. ) ;
#1128 = EDGE_LOOP ( 'NONE', ( #1143, #1122, #293, #1038 ) ) ;
#1129 = VECTOR ( 'NONE', #934, 1000.000000000000000 ) ;
#1130 = PRODUCT_DEFINITION_FORMATION_WITH_SPECIFIED_SOURCE ( 'ANY', '', #1029, .NOT_KNOWN. ) ;
#1131 = ORIENTED_EDGE ( 'NONE', *, *, #1231, .T. ) ;
#1132 = DIRECTION ( 'NONE',  ( 1.355252715606880789E-16, -0.000000000000000000, 1.000000000000000000 ) ) ;
#1133 = SPHERICAL_SURFACE ( 'NONE', #1088, 0.04000000000000000083 ) ;
#1134 = LINE ( 'NONE', #638, #437 ) ;
#1135 = DIRECTION ( 'NONE',  ( 1.000000000000000000, 0.000000000000000000, 1.355252715606880789E-16 ) ) ;
#1136 = VERTEX_POINT ( 'NONE', #802 ) ;
#1137 = EDGE_LOOP ( 'NONE', ( #672, #1253, #1210, #384 ) ) ;
#1138 = CARTESIAN_POINT ( 'NONE',  ( 0.8000000000000001554, 0.9499999999999999556, -0.3999999999999998002 ) ) ;
#1139 = AXIS2_PLACEMENT_3D ( 'NONE', #1075, #669, #182 ) ;
#1140 = CARTESIAN_POINT ( 'NONE',  ( -0.7600000000000000089, 0.03999999999999999389, 0.4000000000000000777 ) ) ;
#1141 = AXIS2_PLACEMENT_3D ( 'NONE', #226, #105, #618 ) ;
#1142 = DIRECTION ( 'NONE',  ( 0.000000000000000000, 0.000000000000000000, 1.000000000000000000 ) ) ;
#1143 = ORIENTED_EDGE ( 'NONE', *, *, #14, .F. ) ;
#1144 = VERTEX_POINT ( 'NONE', #1211 ) ;
#1145 =( LENGTH_UNIT ( ) NAMED_UNIT ( * ) SI_UNIT ( .MILLI., .METRE. ) );
#1146 = CARTESIAN_POINT ( 'NONE',  ( 0.7600000000000000089, 0.03999999999999999389, 0.3600000000000000977 ) ) ;
#1147 = CARTESIAN_POINT ( 'NONE',  ( -0.4500000000000001776, 0.01333333333333333245, -0.3599999999999995981 ) ) ;
#1148 = DIRECTION ( 'NONE',  ( -1.000000000000000000, -0.000000000000000000, 8.673617379884036705E-17 ) ) ;
#1149 = EDGE_LOOP ( 'NONE', ( #817, #610, #78, #453 ) ) ;
#1150 = ORIENTED_EDGE ( 'NONE', *, *, #1154, .F. ) ;
#1151 = SPHERICAL_SURFACE ( 'NONE', #1024, 0.04000000000000000083 ) ;
#1152 = AXIS2_PLACEMENT_3D ( 'NONE', #1026, #441, #1034 ) ;
#1153 = DIRECTION ( 'NONE',  ( 0.000000000000000000, -1.000000000000000000, 0.000000000000000000 ) ) ;
#1154 = EDGE_CURVE ( 'NONE', #902, #1103, #511, .T. ) ;
#1155 = DIRECTION ( 'NONE',  ( 1.000000000000000000, -0.000000000000000000, -1.355252715606880789E-16 ) ) ;
#1156 = ADVANCED_FACE ( 'NONE', ( #225 ), #696, .T. ) ;
#1157 = DIRECTION ( 'NONE',  ( 0.000000000000000000, 0.000000000000000000, 1.000000000000000000 ) ) ;
#1158 = ORIENTED_EDGE ( 'NONE', *, *, #862, .F. ) ;
#1159 = DIRECTION ( 'NONE',  ( 0.000000000000000000, -1.000000000000000000, 0.000000000000000000 ) ) ;
#1160 = CARTESIAN_POINT ( 'NONE',  ( -0.7600000000000001199, 0.9499999999999999556, -0.3999999999999998002 ) ) ;
#1161 = CARTESIAN_POINT ( 'NONE',  ( 0.7600000000000001199, 0.9100000000000000311, -0.3599999999999998201 ) ) ;
#1162 = ORIENTED_EDGE ( 'NONE', *, *, #1016, .T. ) ;
#1163 = CYLINDRICAL_SURFACE ( 'NONE', #742, 0.03999999999999999389 ) ;
#1164 = SURFACE_STYLE_USAGE ( .BOTH. , #201 ) ;
#1165 = FACE_OUTER_BOUND ( 'NONE', #204, .T. ) ;
#1166 = ADVANCED_FACE ( 'NONE', ( #1204 ), #325, .T. ) ;
#1167 = ORIENTED_EDGE ( 'NONE', *, *, #866, .T. ) ;
#1168 = CARTESIAN_POINT ( 'NONE',  ( 0.000000000000000000, 0.000000000000000000, 0.000000000000000000 ) ) ;
#1169 = AXIS2_PLACEMENT_3D ( 'NONE', #1190, #524, #427 ) ;
#1170 = PLANE ( 'NONE',  #684 ) ;
#1171 = FACE_OUTER_BOUND ( 'NONE', #1149, .T. ) ;
#1172 = ORIENTED_EDGE ( 'NONE', *, *, #520, .T. ) ;
#1173 = FACE_OUTER_BOUND ( 'NONE', #534, .T. ) ;
#1174 = EDGE_CURVE ( 'NONE', #1222, #446, #220, .T. ) ;
#1175 = LINE ( 'NONE', #2, #884 ) ;
#1176 = FACE_OUTER_BOUND ( 'NONE', #1071, .T. ) ;
#1177 = COLOUR_RGB ( '',0.7921568627450980005, 0.8196078431372548767, 0.9333333333333333481 ) ;
#1178 = ORIENTED_EDGE ( 'NONE', *, *, #916, .T. ) ;
#1179 = FILL_AREA_STYLE ('',( #1258 ) ) ;
#1180 = EDGE_CURVE ( 'NONE', #241, #1248, #118, .T. ) ;
#1181 = DIRECTION ( 'NONE',  ( 1.000000000000000000, 0.000000000000000000, 1.355252715606880789E-16 ) ) ;
#1182 = VERTEX_POINT ( 'NONE', #1012 ) ;
#1183 = DIRECTION ( 'NONE',  ( 1.000000000000000000, 0.000000000000000000, 0.000000000000000000 ) ) ;
#1184 = FACE_OUTER_BOUND ( 'NONE', #366, .T. ) ;
#1185 = EDGE_CURVE ( 'NONE', #256, #707, #40, .T. ) ;
#1186 = AXIS2_PLACEMENT_3D ( 'NONE', #728, #852, #546 ) ;
#1187 = CARTESIAN_POINT ( 'NONE',  ( -0.4500000000000001776, 0.9499999999999999556, -0.3599999999999998201 ) ) ;
#1188 = ADVANCED_FACE ( 'NONE', ( #407 ), #1198, .T. ) ;
#1189 = ORIENTED_EDGE ( 'NONE', *, *, #1180, .F. ) ;
#1190 = CARTESIAN_POINT ( 'NONE',  ( -0.7600000000000000089, 0.04000000000000000083, 0.3600000000000000977 ) ) ;
#1191 = CARTESIAN_POINT ( 'NONE',  ( 0.8000000000000000444, 0.9100000000000000311, 0.3600000000000000977 ) ) ;
#1192 = CARTESIAN_POINT ( 'NONE',  ( 0.7600000000000000089, 0.9100000000000000311, 0.3600000000000000977 ) ) ;
#1193 = AXIS2_PLACEMENT_3D ( 'NONE', #698, #327, #804 ) ;
#1194 = ORIENTED_EDGE ( 'NONE', *, *, #200, .F. ) ;
#1195 = VECTOR ( 'NONE', #796, 1000.000000000000000 ) ;
#1196 = ORIENTED_EDGE ( 'NONE', *, *, #749, .T. ) ;
#1197 = APPLICATION_CONTEXT ( 'automotive_design' ) ;
#1198 = CYLINDRICAL_SURFACE ( 'NONE', #695, 0.03999999999999999389 ) ;
#1199 = DIRECTION ( 'NONE',  ( 1.505836350674312974E-16, 0.000000000000000000, 1.000000000000000000 ) ) ;
#1200 = CARTESIAN_POINT ( 'NONE',  ( -0.4500000000000001776, 0.9100000000000000311, -0.3999999999999998002 ) ) ;
#1201 = ORIENTED_EDGE ( 'NONE', *, *, #443, .T. ) ;
#1202 = EDGE_CURVE ( 'NONE', #478, #158, #836, .T. ) ;
#1203 = ORIENTED_EDGE ( 'NONE', *, *, #655, .T. ) ;
#1204 = FACE_OUTER_BOUND ( 'NONE', #318, .T. ) ;
#1205 = LINE ( 'NONE', #803, #641 ) ;
#1206 = CARTESIAN_POINT ( 'NONE',  ( -0.4500000000000000666, 0.9100000000000000311, 0.3866666666666667695 ) ) ;
#1207 = AXIS2_PLACEMENT_3D ( 'NONE', #637, #140, #50 ) ;
#1208 = ORIENTED_EDGE ( 'NONE', *, *, #762, .T. ) ;
#1209 = VECTOR ( 'NONE', #1085, 1000.000000000000000 ) ;
#1210 = ORIENTED_EDGE ( 'NONE', *, *, #1060, .F. ) ;
#1211 = CARTESIAN_POINT ( 'NONE',  ( 0.7600000000000001199, 0.9100000000000000311, -0.3999999999999998002 ) ) ;
#1212 = LINE ( 'NONE', #119, #693 ) ;
#1213 = ORIENTED_EDGE ( 'NONE', *, *, #773, .T. ) ;
#1214 = CLOSED_SHELL ( 'NONE', ( #820, #634, #132, #185, #145, #811, #1051, #946, #219, #1127, #595, #70, #544, #459, #184, #67, #311, #1188 ) ) ;
#1215 = ORIENTED_EDGE ( 'NONE', *, *, #894, .F. ) ;
#1216 = VECTOR ( 'NONE', #531, 1000.000000000000000 ) ;
#1217 = DIRECTION ( 'NONE',  ( 0.000000000000000000, -1.000000000000000000, 0.000000000000000000 ) ) ;
#1218 = CARTESIAN_POINT ( 'NONE',  ( -0.4500000000000000666, 0.9499999999999999556, 0.4000000000000000777 ) ) ;
#1219 = DIRECTION ( 'NONE',  ( 0.000000000000000000, 1.000000000000000000, 0.000000000000000000 ) ) ;
#1220 = EDGE_CURVE ( 'NONE', #229, #615, #590, .T. ) ;
#1221 = UNCERTAINTY_MEASURE_WITH_UNIT (LENGTH_MEASURE( 1.000000000000000082E-05 ), #1145, 'distance_accuracy_value', 'NONE');
#1222 = VERTEX_POINT ( 'NONE', #1111 ) ;
#1223 =( LENGTH_UNIT ( ) NAMED_UNIT ( * ) SI_UNIT ( .MILLI., .METRE. ) );
#1224 = CARTESIAN_POINT ( 'NONE',  ( -0.4500000000000001776, 0.000000000000000000, -0.3599999999999998201 ) ) ;
#1225 = LINE ( 'NONE', #1251, #801 ) ;
#1226 = EDGE_CURVE ( 'NONE', #264, #1136, #636, .T. ) ;
#1227 = DIRECTION ( 'NONE',  ( 0.000000000000000000, -0.000000000000000000, -1.000000000000000000 ) ) ;
#1228 = ORIENTED_EDGE ( 'NONE', *, *, #749, .F. ) ;
#1229 = CIRCLE ( 'NONE', #609, 0.03999999999999999389 ) ;
#1230 = ORIENTED_EDGE ( 'NONE', *, *, #762, .F. ) ;
#1231 = EDGE_CURVE ( 'NONE', #514, #1110, #143, .T. ) ;
#1232 = DIRECTION ( 'NONE',  ( 1.000000000000000000, 0.000000000000000000, -8.673617379884036705E-17 ) ) ;
#1233 = DIRECTION ( 'NONE',  ( 1.355252715606880789E-16, 0.000000000000000000, -1.000000000000000000 ) ) ;
#1234 = CARTESIAN_POINT ( 'NONE',  ( 0.7600000000000000089, 0.9499999999999999556, 0.3600000000000000977 ) ) ;
#1235 = FACE_OUTER_BOUND ( 'NONE', #373, .T. ) ;
#1236 = EDGE_LOOP ( 'NONE', ( #434, #760, #433, #759, #775, #98, #1268, #144 ) ) ;
#1237 = ORIENTED_EDGE ( 'NONE', *, *, #746, .T. ) ;
#1238 = FILL_AREA_STYLE ('',( #258 ) ) ;
#1239 = DIRECTION ( 'NONE',  ( 1.000000000000000000, 0.000000000000000000, -0.000000000000000000 ) ) ;
#1240 = AXIS2_PLACEMENT_3D ( 'NONE', #398, #1181, #394 ) ;
#1241 = CIRCLE ( 'NONE', #951, 0.03999999999999999389 ) ;
#1242 = CARTESIAN_POINT ( 'NONE',  ( -0.8000000000000000444, 0.9100000000000000311, 0.4000000000000000777 ) ) ;
#1243 = AXIS2_PLACEMENT_3D ( 'NONE', #1161, #975, #572 ) ;
#1244 = CYLINDRICAL_SURFACE ( 'NONE', #1186, 0.03999999999999999389 ) ;
#1245 = EDGE_LOOP ( 'NONE', ( #186, #243, #621, #1230 ) ) ;
#1246 = EDGE_CURVE ( 'NONE', #111, #33, #290, .T. ) ;
#1247 = EDGE_CURVE ( 'NONE', #578, #457, #167, .T. ) ;
#1248 = VERTEX_POINT ( 'NONE', #1040 ) ;
#1249 = DIRECTION ( 'NONE',  ( -1.355252715606880789E-16, 0.000000000000000000, -1.000000000000000000 ) ) ;
#1250 = EDGE_CURVE ( 'NONE', #181, #500, #528, .T. ) ;
#1251 = CARTESIAN_POINT ( 'NONE',  ( 0.000000000000000000, 0.000000000000000000, -0.3599999999999998201 ) ) ;
#1252 = CARTESIAN_POINT ( 'NONE',  ( 0.7600000000000000089, 0.9499999999999999556, 0.4000000000000000777 ) ) ;
#1253 = ORIENTED_EDGE ( 'NONE', *, *, #443, .F. ) ;
#1254 = ORIENTED_EDGE ( 'NONE', *, *, #671, .F. ) ;
#1255 = VECTOR ( 'NONE', #340, 1000.000000000000000 ) ;
#1256 = EDGE_CURVE ( 'NONE', #241, #500, #332, .T. ) ;
#1257 = VECTOR ( 'NONE', #1183, 1000.000000000000000 ) ;
#1258 = FILL_AREA_STYLE_COLOUR ( '', #743 ) ;
#1259 = FACE_OUTER_BOUND ( 'NONE', #737, .T. ) ;
#1260 = DIRECTION ( 'NONE',  ( 0.000000000000000000, 1.000000000000000000, 0.000000000000000000 ) ) ;
#1261 = ORIENTED_EDGE ( 'NONE', *, *, #1185, .F. ) ;
#1262 = CARTESIAN_POINT ( 'NONE',  ( 0.7600000000000001199, 0.000000000000000000, 1.029992063861229705E-16 ) ) ;
#1263 = CIRCLE ( 'NONE', #175, 0.02666666666666669960 ) ;
#1264 = EDGE_CURVE ( 'NONE', #839, #395, #160, .T. ) ;
#1265 = DIRECTION ( 'NONE',  ( -1.000000000000000000, 0.000000000000000000, 0.000000000000000000 ) ) ;
#1266 = AXIS2_PLACEMENT_3D ( 'NONE', #496, #401, #1101 ) ;
#1267 = LINE ( 'NONE', #670, #987 ) ;
#1268 = ORIENTED_EDGE ( 'NONE', *, *, #369, .F. ) ;
#1269 = DIRECTION ( 'NONE',  ( 0.000000000000000000, 0.000000000000000000, 1.000000000000000000 ) ) ;
#1270 = DIRECTION ( 'NONE',  ( -8.673617379884036705E-17, 0.000000000000000000, -1.000000000000000000 ) ) ;
#1271 = CARTESIAN_POINT ( 'NONE',  ( 0.4500000000007275958, 0.03999999999999999389, 0.3599999999999999867 ) ) ;
#1272 = ORIENTED_EDGE ( 'NONE', *, *, #322, .F. ) ;
#1273 = EDGE_CURVE ( 'NONE', #1098, #445, #345, .T. ) ;
#1274 = CARTESIAN_POINT ( 'NONE',  ( 0.000000000000000000, 0.9100000000000000311, 0.3600000000000000977 ) ) ;
#1275 = VECTOR ( 'NONE', #950, 1000.000000000000000 ) ;
#1276 = AXIS2_PLACEMENT_3D ( 'NONE', #15, #21, #413 ) ;
#1277 = DIRECTION ( 'NONE',  ( -1.000000000000000000, 0.000000000000000000, 0.000000000000000000 ) ) ;
#1278 = CARTESIAN_POINT ( 'NONE',  ( -0.4500000000000000666, 0.04000000000000043104, 0.3866666666666667140 ) ) ;
#1279 = ORIENTED_EDGE ( 'NONE', *, *, #484, .F. ) ;
#1280 = EDGE_CURVE ( 'NONE', #1182, #731, #237, .T. ) ;
ENDSEC;
END-ISO-10303-21;
